<svg width="158" height="53" viewBox="0 0 158 53" fill="none" xmlns="http://www.w3.org/2000/svg">
<g clip-path="url(#clip0_62_4027)">
<path d="M145.418 5.01797e-05H12.5892C12.1051 5.01797e-05 11.6267 5.01798e-05 11.1438 0.00270018C10.7396 0.00535018 10.3386 0.0130484 9.93045 0.0195277C9.04384 0.0299976 8.15932 0.108271 7.28457 0.253668C6.41105 0.402231 5.5649 0.682314 4.77472 1.08444C3.98551 1.48998 3.26439 2.01692 2.63752 2.64617C2.00735 3.27364 1.48206 3.99892 1.08184 4.79411C0.680515 5.58772 0.402236 6.43814 0.256613 7.31601C0.109605 8.19277 0.0304982 9.07964 0.0200035 9.96866C0.00775053 10.3749 0.00645657 10.7825 0 11.1888V41.8152C0.00645657 42.2266 0.00775053 42.6252 0.0200035 43.0367C0.0305015 43.9257 0.109608 44.8125 0.256613 45.6892C0.401834 46.5676 0.68013 47.4185 1.08184 48.2124C1.48188 49.005 2.00724 49.7274 2.63752 50.3514C3.26202 50.9834 3.9836 51.5107 4.77472 51.9132C5.56489 52.3164 6.41096 52.5981 7.28457 52.749C8.15947 52.8932 9.0439 52.9715 9.93045 52.9832C10.3386 52.9922 10.7396 52.9974 11.1438 52.9974C11.6267 53.0001 12.1051 53.0001 12.5892 53.0001H145.418C145.892 53.0001 146.375 53.0001 146.849 52.9974C147.251 52.9974 147.664 52.9922 148.066 52.9832C148.951 52.9721 149.834 52.8938 150.707 52.749C151.584 52.597 152.433 52.3154 153.227 51.9132C154.017 51.5105 154.738 50.9832 155.362 50.3514C155.991 49.7249 156.517 49.0031 156.922 48.2124C157.321 47.4179 157.596 46.5671 157.739 45.6892C157.887 44.8124 157.969 43.9258 157.985 43.0367C157.99 42.6252 157.99 42.2266 157.99 41.8152C158 41.3338 158 40.8551 158 40.3659V12.6354C158 12.1502 158 11.6688 157.99 11.1888C157.99 10.7825 157.99 10.3749 157.985 9.96861C157.969 9.07951 157.887 8.19284 157.739 7.31596C157.596 6.4386 157.32 5.58824 156.922 4.79406C156.107 3.20019 154.815 1.90278 153.227 1.08432C152.433 0.683177 151.583 0.403169 150.707 0.253549C149.834 0.107511 148.951 0.0292105 148.066 0.0193422C147.664 0.0128762 147.251 0.00511168 146.849 0.00252793C146.375 -0.00012207 145.892 -0.00012207 145.418 -0.00012207V5.01797e-05Z" fill="#A6A6A6"/>
<path d="M11.1504 51.8407C10.7481 51.8407 10.3555 51.8355 9.95639 51.8265C9.12956 51.8157 8.30465 51.7435 7.48845 51.6104C6.72738 51.4789 5.99011 51.2342 5.30095 50.8844C4.61811 50.5376 3.99531 50.0828 3.4564 49.5374C2.90969 48.9985 2.45453 48.3735 2.10896 47.6871C1.75958 46.9962 1.51778 46.2557 1.392 45.4913C1.25617 44.6699 1.18268 43.8394 1.17216 43.0069C1.16379 42.7275 1.15283 41.797 1.15283 41.797V11.1888C1.15283 11.1888 1.1645 10.2727 1.17223 10.0035C1.1823 9.17234 1.25536 8.34311 1.39079 7.52304C1.5168 6.75656 1.75878 6.01389 2.10835 5.32076C2.45266 4.63482 2.90529 4.00931 3.44871 3.46848C3.99151 2.9225 4.6163 2.46535 5.3003 2.1137C5.98787 1.76507 6.72375 1.52212 7.48328 1.39298C8.30217 1.25858 9.12994 1.18592 9.95964 1.1756L11.151 1.15942H146.843L148.048 1.17625C148.871 1.18606 149.691 1.25807 150.502 1.39168C151.269 1.52244 152.013 1.76709 152.708 2.11758C154.079 2.82626 155.194 3.94744 155.897 5.32399C156.241 6.01234 156.479 6.74895 156.604 7.50881C156.741 8.33561 156.817 9.17135 156.833 10.0094C156.837 10.3846 156.837 10.7877 156.837 11.1888C156.847 11.6857 156.847 12.1586 156.847 12.6354V40.3659C156.847 40.8473 156.847 41.317 156.837 41.7906C156.837 42.2214 156.837 42.6162 156.832 43.0224C156.816 43.8455 156.741 44.6663 156.606 45.4783C156.483 46.2482 156.243 46.9945 155.893 47.691C155.545 48.37 155.093 48.9896 154.552 49.5271C154.013 50.0754 153.389 50.5328 152.705 50.8819C152.011 51.2343 151.269 51.4799 150.502 51.6104C149.686 51.7442 148.861 51.8164 148.034 51.8265C147.647 51.8355 147.242 51.8407 146.849 51.8407L145.418 51.8433L11.1504 51.8407Z" fill="black"/>
<path d="M32.7038 26.8984C32.718 25.7925 33.0108 24.7082 33.5548 23.7463C34.0988 22.7844 34.8765 21.9762 35.8154 21.397C35.2189 20.5421 34.432 19.8386 33.5172 19.3424C32.6025 18.8461 31.585 18.5707 30.5456 18.538C28.3284 18.3045 26.1789 19.8694 25.049 19.8694C23.8973 19.8694 22.1577 18.5612 20.2845 18.5999C19.0728 18.6392 17.892 18.9928 16.857 19.6262C15.822 20.2596 14.9681 21.1513 14.3786 22.2143C11.825 26.651 13.7298 33.1714 16.1759 36.7576C17.3997 38.5137 18.8301 40.4753 20.7016 40.4058C22.533 40.3295 23.217 39.2338 25.4277 39.2338C27.6179 39.2338 28.2596 40.4058 30.1691 40.3615C32.1344 40.3295 33.3725 38.5976 34.5534 36.8249C35.4328 35.5736 36.1094 34.1907 36.5583 32.7273C35.4166 32.2428 34.4422 31.4316 33.7568 30.3951C33.0714 29.3585 32.7052 28.1425 32.7038 26.8984Z" fill="white"/>
<path d="M29.0972 16.1795C30.1687 14.8886 30.6966 13.2295 30.5687 11.5544C28.9317 11.7269 27.4196 12.5121 26.3336 13.7534C25.8026 14.3598 25.3959 15.0653 25.1368 15.8295C24.8777 16.5937 24.7712 17.4017 24.8235 18.2072C25.6423 18.2157 26.4523 18.0376 27.1926 17.6863C27.9329 17.3351 28.5841 16.8199 29.0972 16.1795Z" fill="white"/>
<path d="M55.8544 35.96H49.6046L48.1037 40.4073H45.4565L51.3763 23.9535H54.1266L60.0463 40.4073H57.354L55.8544 35.96ZM50.2519 33.9078H55.2059L52.7637 26.6902H52.6954L50.2519 33.9078Z" fill="white"/>
<path d="M72.8308 34.4099C72.8308 38.1378 70.8425 40.5329 67.8421 40.5329C67.082 40.5728 66.3261 40.3971 65.6609 40.0259C64.9957 39.6547 64.4481 39.103 64.0809 38.4341H64.0241V44.3759H61.5703V28.4112H63.9455V30.4064H63.9906C64.3748 29.7407 64.9316 29.1919 65.6018 28.8184C66.2721 28.445 67.0307 28.2609 67.7969 28.2857C70.8309 28.2857 72.8308 30.6924 72.8308 34.4099ZM70.3087 34.4099C70.3087 31.9812 69.058 30.3844 67.1496 30.3844C65.2748 30.3844 64.0138 32.0148 64.0138 34.4099C64.0138 36.827 65.2748 38.4457 67.1496 38.4457C69.058 38.4457 70.3087 36.8606 70.3087 34.4099Z" fill="white"/>
<path d="M85.9881 34.4099C85.9881 38.1378 83.9998 40.5328 80.9993 40.5328C80.2392 40.5727 79.4833 40.397 78.8181 40.0259C78.1529 39.6547 77.6054 39.103 77.2381 38.434H77.1813V44.3758H74.7275V28.4112H77.1026V30.4064H77.1478C77.5319 29.7407 78.0888 29.1919 78.759 28.8184C79.4293 28.445 80.1879 28.2609 80.9541 28.2857C83.9882 28.2857 85.9881 30.6924 85.9881 34.4099ZM83.466 34.4099C83.466 31.9812 82.2152 30.3844 80.3069 30.3844C78.4321 30.3844 77.171 32.0148 77.171 34.4099C77.171 36.827 78.4321 38.4457 80.3069 38.4457C82.2152 38.4457 83.466 36.8606 83.466 34.4099H83.466Z" fill="white"/>
<path d="M94.6837 35.8229C94.8655 37.4546 96.4451 38.5259 98.6035 38.5259C100.672 38.5259 102.16 37.4545 102.16 35.9833C102.16 34.7061 101.262 33.9414 99.1373 33.4174L97.0124 32.9037C94.0016 32.1739 92.6039 30.7609 92.6039 28.468C92.6039 25.6291 95.0692 23.6791 98.57 23.6791C102.035 23.6791 104.41 25.6291 104.49 28.468H102.013C101.864 26.826 100.512 25.8349 98.5352 25.8349C96.5585 25.8349 95.2059 26.8377 95.2059 28.2972C95.2059 29.4605 96.0698 30.145 98.1831 30.669L99.9896 31.1141C103.354 31.9125 104.751 33.2686 104.751 35.6753C104.751 38.7536 102.308 40.6815 98.4217 40.6815C94.7855 40.6815 92.3305 38.7988 92.1719 35.8228L94.6837 35.8229Z" fill="white"/>
<path d="M110.047 25.5723V28.4112H112.32V30.3612H110.047V36.9745C110.047 38.0019 110.502 38.4807 111.502 38.4807C111.772 38.4759 112.041 38.4569 112.309 38.4237V40.362C111.86 40.4463 111.403 40.4844 110.946 40.4759C108.526 40.4759 107.582 39.5637 107.582 37.2371V30.3612H105.844V28.4112H107.582V25.5723H110.047Z" fill="white"/>
<path d="M113.637 34.4099C113.637 30.6355 115.852 28.2637 119.307 28.2637C122.773 28.2637 124.978 30.6354 124.978 34.4099C124.978 38.1947 122.784 40.5561 119.307 40.5561C115.83 40.5561 113.637 38.1947 113.637 34.4099ZM122.477 34.4099C122.477 31.8207 121.295 30.2926 119.307 30.2926C117.318 30.2926 116.137 31.8324 116.137 34.4099C116.137 37.0094 117.318 38.526 119.307 38.526C121.295 38.526 122.477 37.0094 122.477 34.4099H122.477Z" fill="white"/>
<path d="M127 28.4112H129.341V30.453H129.398C129.556 29.8153 129.928 29.2517 130.452 28.857C130.975 28.4623 131.619 28.2606 132.273 28.2857C132.556 28.2847 132.838 28.3155 133.114 28.3775V30.6808C132.757 30.5713 132.384 30.521 132.011 30.532C131.655 30.5174 131.299 30.5805 130.969 30.7168C130.64 30.8532 130.343 31.0595 130.1 31.3217C129.857 31.5839 129.674 31.8958 129.562 32.2359C129.451 32.5759 129.414 32.9362 129.454 33.2919V40.4073H127L127 28.4112Z" fill="white"/>
<path d="M144.427 36.8839C144.097 39.0616 141.983 40.5561 139.28 40.5561C135.802 40.5561 133.644 38.218 133.644 34.4668C133.644 30.7041 135.814 28.2637 139.176 28.2637C142.484 28.2637 144.564 30.5436 144.564 34.1809V35.0245H136.121V35.1733C136.082 35.6148 136.137 36.0596 136.282 36.4781C136.428 36.8966 136.66 37.2792 136.964 37.6006C137.268 37.922 137.637 38.1747 138.046 38.3421C138.455 38.5094 138.895 38.5875 139.336 38.5712C139.916 38.6258 140.498 38.491 140.995 38.187C141.493 37.883 141.879 37.426 142.097 36.8839L144.427 36.8839ZM136.132 33.3036H142.109C142.131 32.9066 142.071 32.5094 141.932 32.1368C141.794 31.7642 141.581 31.4243 141.305 31.1384C141.03 30.8525 140.699 30.6268 140.332 30.4754C139.966 30.3241 139.573 30.2504 139.176 30.2589C138.777 30.2565 138.381 30.3336 138.011 30.4856C137.641 30.6377 137.305 30.8617 137.022 31.1447C136.739 31.4278 136.515 31.7643 136.362 32.1348C136.209 32.5054 136.131 32.9026 136.132 33.3036V33.3036Z" fill="white"/>
<path d="M49.9444 11.5685C50.4588 11.5315 50.975 11.6095 51.4558 11.7969C51.9365 11.9843 52.3699 12.2764 52.7245 12.6522C53.0791 13.028 53.3462 13.4781 53.5065 13.9701C53.6668 14.462 53.7163 14.9835 53.6514 15.497C53.6514 18.0227 52.2911 19.4746 49.9444 19.4746H47.0986V11.5685H49.9444ZM48.3223 18.3565H49.8077C50.1753 18.3786 50.5432 18.3181 50.8845 18.1795C51.2259 18.0409 51.5322 17.8276 51.781 17.5552C52.0299 17.2829 52.2151 16.9582 52.3232 16.6049C52.4313 16.2517 52.4595 15.8787 52.4059 15.5131C52.4556 15.1489 52.4246 14.7782 52.3148 14.4275C52.2051 14.0769 52.0194 13.7549 51.7711 13.4847C51.5228 13.2145 51.218 13.0027 50.8785 12.8646C50.5391 12.7265 50.1734 12.6654 49.8077 12.6858H48.3223V18.3565Z" fill="white"/>
<path d="M55.0338 16.4888C54.9964 16.0967 55.0411 15.7011 55.165 15.3273C55.2889 14.9536 55.4893 14.61 55.7533 14.3185C56.0173 14.027 56.3391 13.7941 56.698 13.6348C57.0569 13.4754 57.4451 13.3931 57.8376 13.3931C58.2301 13.3931 58.6183 13.4754 58.9772 13.6348C59.3362 13.7941 59.658 14.027 59.9219 14.3185C60.1859 14.61 60.3863 14.9536 60.5102 15.3273C60.6341 15.7011 60.6788 16.0967 60.6414 16.4888C60.6795 16.8813 60.6354 17.2774 60.5118 17.6518C60.3882 18.0261 60.188 18.3704 59.9239 18.6624C59.6598 18.9545 59.3378 19.1878 58.9785 19.3475C58.6192 19.5073 58.2306 19.5898 57.8376 19.5898C57.4446 19.5898 57.056 19.5073 56.6967 19.3475C56.3374 19.1878 56.0154 18.9545 55.7513 18.6624C55.4873 18.3704 55.287 18.0261 55.1634 17.6518C55.0398 17.2774 54.9957 16.8813 55.0338 16.4888ZM59.4345 16.4888C59.4345 15.1955 58.8556 14.4392 57.8395 14.4392C56.8196 14.4392 56.2459 15.1955 56.2459 16.4888C56.2459 17.7924 56.8197 18.5429 57.8395 18.5429C58.8556 18.5429 59.4346 17.7872 59.4346 16.4888H59.4345Z" fill="white"/>
<path d="M68.0952 19.4745H66.878L65.6492 15.0803H65.5564L64.3327 19.4745H63.1271L61.4883 13.5081H62.6784L63.7435 18.0608H63.8312L65.0535 13.5081H66.1792L67.4016 18.0608H67.4944L68.5543 13.5081H69.7276L68.0952 19.4745Z" fill="white"/>
<path d="M71.1065 13.5081H72.236V14.4559H72.3237C72.4724 14.1155 72.7233 13.8302 73.0413 13.6396C73.3594 13.4491 73.7287 13.3628 74.0979 13.393C74.3872 13.3711 74.6777 13.4149 74.9478 13.521C75.218 13.6272 75.4608 13.7929 75.6585 14.006C75.8561 14.2192 76.0034 14.4742 76.0895 14.7522C76.1756 15.0302 76.1983 15.3241 76.1558 15.6121V19.4744H74.9824V15.9078C74.9824 14.9489 74.5673 14.4721 73.6995 14.4721C73.5031 14.4629 73.307 14.4965 73.1247 14.5705C72.9424 14.6444 72.7782 14.7571 72.6434 14.9007C72.5085 15.0443 72.4062 15.2155 72.3435 15.4025C72.2807 15.5895 72.259 15.7879 72.2798 15.9841V19.4745H71.1064L71.1065 13.5081Z" fill="white"/>
<path d="M78.0254 11.179H79.1988V19.4745H78.0254V11.179Z" fill="white"/>
<path d="M80.8296 16.4888C80.7923 16.0966 80.837 15.701 80.9609 15.3273C81.0849 14.9535 81.2853 14.6099 81.5493 14.3184C81.8133 14.0269 82.1351 13.794 82.4941 13.6346C82.8531 13.4753 83.2413 13.3929 83.6338 13.3929C84.0263 13.3929 84.4145 13.4753 84.7735 13.6346C85.1325 13.794 85.4543 14.0269 85.7183 14.3184C85.9823 14.6099 86.1827 14.9535 86.3066 15.3273C86.4306 15.701 86.4753 16.0966 86.438 16.4888C86.476 16.8813 86.4318 17.2774 86.3082 17.6518C86.1846 18.0261 85.9843 18.3704 85.7202 18.6624C85.4561 18.9544 85.134 19.1878 84.7747 19.3475C84.4154 19.5072 84.0268 19.5897 83.6338 19.5897C83.2408 19.5897 82.8522 19.5072 82.4929 19.3475C82.1335 19.1878 81.8115 18.9544 81.5474 18.6624C81.2833 18.3704 81.083 18.0261 80.9594 17.6518C80.8358 17.2774 80.7916 16.8813 80.8296 16.4888ZM85.2304 16.4888C85.2304 15.1955 84.6515 14.4392 83.6354 14.4392C82.6155 14.4392 82.0417 15.1955 82.0417 16.4888C82.0417 17.7924 82.6155 18.5429 83.6354 18.5429C84.6515 18.5429 85.2304 17.7872 85.2304 16.4888H85.2304Z" fill="white"/>
<path d="M87.6733 17.7872C87.6733 16.7133 88.4702 16.0941 89.8847 16.0061L91.4952 15.913V15.398C91.4952 14.7678 91.08 14.412 90.278 14.412C89.6229 14.412 89.1691 14.6533 89.0388 15.0751H87.9029C88.0228 14.0503 88.9834 13.393 90.3321 13.393C91.8227 13.393 92.6634 14.1377 92.6634 15.398V19.4745H91.5339V18.6361H91.441C91.2526 18.9368 90.988 19.182 90.6742 19.3466C90.3605 19.5112 90.0088 19.5893 89.6552 19.5728C89.4056 19.5989 89.1533 19.5722 88.9146 19.4944C88.676 19.4166 88.4562 19.2895 88.2695 19.1213C88.0828 18.9531 87.9332 18.7474 87.8306 18.5176C87.7279 18.2879 87.6743 18.0391 87.6733 17.7872ZM91.4952 17.2774V16.7786L90.0433 16.8718C89.2245 16.9268 88.8531 17.2062 88.8531 17.7322C88.8531 18.2692 89.3173 18.5817 89.9556 18.5817C90.1427 18.6007 90.3316 18.5818 90.5112 18.526C90.6907 18.4702 90.8573 18.3788 91.0009 18.2571C91.1446 18.1354 91.2624 17.9859 91.3473 17.8176C91.4322 17.6493 91.4825 17.4656 91.4952 17.2774Z" fill="white"/>
<path d="M94.2056 16.4887C94.2056 14.6035 95.1713 13.4092 96.6735 13.4092C97.0451 13.392 97.4138 13.4813 97.7367 13.6666C98.0596 13.852 98.3232 14.1258 98.4967 14.4559H98.5844V11.179H99.7578V19.4745H98.6334V18.5319H98.5406C98.3536 18.8598 98.0808 19.1301 97.7517 19.3136C97.4226 19.4971 97.0497 19.5867 96.6735 19.5728C95.161 19.5729 94.2056 18.3785 94.2056 16.4887ZM95.4177 16.4887C95.4177 17.7542 96.0121 18.5157 97.0062 18.5157C97.9952 18.5157 98.6064 17.7432 98.6064 16.4939C98.6064 15.2504 97.9888 14.467 97.0062 14.467C96.0185 14.467 95.4176 15.2336 95.4176 16.4887H95.4177Z" fill="white"/>
<path d="M104.612 16.4888C104.575 16.0967 104.62 15.7011 104.744 15.3273C104.868 14.9536 105.068 14.61 105.332 14.3185C105.596 14.027 105.918 13.7941 106.277 13.6348C106.636 13.4754 107.024 13.3931 107.416 13.3931C107.809 13.3931 108.197 13.4754 108.556 13.6348C108.915 13.7941 109.237 14.027 109.501 14.3185C109.765 14.61 109.965 14.9536 110.089 15.3273C110.213 15.7011 110.257 16.0967 110.22 16.4888C110.258 16.8813 110.214 17.2774 110.09 17.6518C109.967 18.0261 109.767 18.3704 109.503 18.6624C109.238 18.9545 108.916 19.1878 108.557 19.3475C108.198 19.5073 107.809 19.5898 107.416 19.5898C107.023 19.5898 106.635 19.5073 106.275 19.3475C105.916 19.1878 105.594 18.9545 105.33 18.6624C105.066 18.3704 104.866 18.0261 104.742 17.6518C104.618 17.2774 104.574 16.8813 104.612 16.4888ZM109.013 16.4888C109.013 15.1955 108.434 14.4392 107.418 14.4392C106.398 14.4392 105.824 15.1955 105.824 16.4888C105.824 17.7924 106.398 18.5429 107.418 18.5429C108.434 18.5429 109.013 17.7872 109.013 16.4888Z" fill="white"/>
<path d="M111.794 13.5081H112.924V14.4559H113.012C113.16 14.1155 113.411 13.8302 113.729 13.6396C114.047 13.4491 114.417 13.3628 114.786 13.393C115.075 13.3711 115.366 13.4149 115.636 13.521C115.906 13.6272 116.149 13.7929 116.346 14.006C116.544 14.2192 116.691 14.4742 116.778 14.7522C116.864 15.0302 116.886 15.3241 116.844 15.6121V19.4744H115.67V15.9078C115.67 14.9489 115.255 14.4721 114.387 14.4721C114.191 14.4629 113.995 14.4965 113.813 14.5705C113.63 14.6444 113.466 14.7571 113.331 14.9007C113.197 15.0443 113.094 15.2155 113.031 15.4025C112.969 15.5895 112.947 15.7879 112.968 15.9841V19.4745H111.794V13.5081Z" fill="white"/>
<path d="M123.474 12.0227V13.5353H124.762V14.5271H123.474V17.5951C123.474 18.2201 123.731 18.4937 124.315 18.4937C124.464 18.4932 124.614 18.4842 124.762 18.4666V19.4474C124.551 19.4852 124.338 19.5053 124.124 19.5075C122.819 19.5075 122.299 19.0469 122.299 17.8966V14.5271H121.355V13.5353H122.299V12.0227H123.474Z" fill="white"/>
<path d="M126.365 11.179H127.528V14.4669H127.621C127.777 14.1233 128.034 13.8364 128.359 13.6451C128.683 13.4538 129.058 13.3676 129.433 13.3981C129.721 13.3824 130.009 13.4306 130.276 13.5393C130.543 13.6481 130.783 13.8146 130.979 14.027C131.174 14.2395 131.321 14.4926 131.407 14.7684C131.494 15.0442 131.519 15.3358 131.481 15.6224V19.4745H130.307V15.9129C130.307 14.9599 129.864 14.4773 129.035 14.4773C128.834 14.4607 128.631 14.4885 128.441 14.5588C128.251 14.6291 128.079 14.7402 127.936 14.8842C127.794 15.0283 127.684 15.2019 127.615 15.3929C127.547 15.5839 127.52 15.7876 127.538 15.9899V19.4745H126.365L126.365 11.179Z" fill="white"/>
<path d="M138.323 17.8636C138.164 18.4088 137.818 18.8805 137.347 19.1961C136.876 19.5116 136.31 19.651 135.747 19.5897C135.355 19.6001 134.966 19.5248 134.606 19.369C134.246 19.2133 133.925 18.9809 133.663 18.6879C133.402 18.3949 133.207 18.0483 133.093 17.6722C132.978 17.2962 132.947 16.8996 133 16.5101C132.948 16.1194 132.98 15.722 133.095 15.3448C133.209 14.9676 133.402 14.6194 133.662 14.3238C133.922 14.0283 134.242 13.7922 134.601 13.6316C134.96 13.471 135.349 13.3896 135.742 13.393C137.396 13.393 138.394 14.5272 138.394 16.4007V16.8116H134.196V16.8776C134.177 17.0965 134.205 17.3169 134.276 17.5246C134.348 17.7323 134.462 17.9227 134.611 18.0837C134.76 18.2446 134.941 18.3725 135.142 18.4591C135.343 18.5458 135.56 18.5893 135.779 18.5868C136.06 18.6207 136.344 18.5699 136.596 18.4411C136.848 18.3123 137.056 18.1113 137.194 17.8635L138.323 17.8636ZM134.196 15.9408H137.199C137.214 15.7405 137.186 15.5394 137.119 15.3503C137.052 15.1612 136.946 14.9883 136.808 14.8427C136.67 14.6972 136.504 14.5822 136.319 14.5051C136.134 14.428 135.935 14.3905 135.735 14.3951C135.532 14.3926 135.331 14.4308 135.143 14.5076C134.955 14.5844 134.784 14.6981 134.641 14.8422C134.497 14.9862 134.384 15.1576 134.308 15.3463C134.231 15.535 134.193 15.7371 134.196 15.9408H134.196Z" fill="white"/>
</g>
<defs>
<clipPath id="clip0_62_4027">
<rect width="158" height="53" fill="white"/>
</clipPath>
</defs>
</svg>
