<svg width="30" height="30" viewBox="0 0 30 30" fill="none" xmlns="http://www.w3.org/2000/svg">
<path d="M13.75 8.125H12.5V9.375H13.75V8.125ZM15 8.125H16.25V9.375H15V8.125ZM18.75 8.125H17.5V9.375H18.75V8.125ZM12.5 10.625H13.75V11.875H12.5V10.625ZM16.25 10.625H15V11.875H16.25V10.625ZM17.5 10.625H18.75V11.875H17.5V10.625ZM13.75 13.125H12.5V14.375H13.75V13.125ZM15 13.125H16.25V14.375H15V13.125ZM18.75 13.125H17.5V14.375H18.75V13.125ZM12.5 15.625H13.75V16.875H12.5V15.625ZM16.25 15.625H15V16.875H16.25V15.625ZM12.5 18.125H13.75V19.375H12.5V18.125ZM16.25 18.125H15V19.375H16.25V18.125ZM12.5 20.625H13.75V21.875H12.5V20.625ZM16.25 20.625H15V21.875H16.25V20.625ZM12.5 23.125H13.75V24.375H12.5V23.125ZM16.25 23.125H15V24.375H16.25V23.125ZM19.375 18.75H21.25V17.5H19.375V18.75ZM21.25 21.25H19.375V20H21.25V21.25ZM19.375 23.75H21.25V22.5H19.375V23.75Z" fill="black"/>
<path fill-rule="evenodd" clip-rule="evenodd" d="M10.625 2.5L20.625 6.25V15H23.125C23.2908 15 23.4497 15.0658 23.5669 15.1831C23.6842 15.3003 23.75 15.4592 23.75 15.625V26.25H24.375C24.5408 26.25 24.6997 26.3158 24.8169 26.4331C24.9342 26.5503 25 26.7092 25 26.875C25 27.0408 24.9342 27.1997 24.8169 27.3169C24.6997 27.4342 24.5408 27.5 24.375 27.5H5.625C5.45924 27.5 5.30027 27.4342 5.18306 27.3169C5.06585 27.1997 5 27.0408 5 26.875C5 26.7092 5.06585 26.5503 5.18306 26.4331C5.30027 26.3158 5.45924 26.25 5.625 26.25H6.25V13.125C6.25 12.9592 6.31585 12.8003 6.43306 12.6831C6.55027 12.5658 6.70924 12.5 6.875 12.5H8.125V8.125H9.375V12.5H10.625V2.5ZM11.875 4.30375L19.375 7.11625V15H17.5C17.3342 15 17.1753 15.0658 17.0581 15.1831C16.9408 15.3003 16.875 15.4592 16.875 15.625V26.25H11.875V4.30375ZM7.5 13.75V26.25H10.625V13.75H7.5ZM22.5 26.25H21.25V25H19.375V26.25H18.125V16.25H22.5V26.25Z" fill="black"/>
</svg>
