<svg width="26" height="25" viewBox="0 0 26 25" fill="none" xmlns="http://www.w3.org/2000/svg">
<path fill-rule="evenodd" clip-rule="evenodd" d="M13.7432 24.0725L13.7282 24.075L13.6395 24.1188L13.6145 24.1238L13.597 24.1188L13.5082 24.0738C13.4949 24.0705 13.4849 24.073 13.4782 24.0813L13.4732 24.0938L13.452 24.6288L13.4582 24.6538L13.4707 24.67L13.6007 24.7625L13.6195 24.7675L13.6345 24.7625L13.7645 24.67L13.7795 24.65L13.7845 24.6288L13.7632 24.095C13.7599 24.0817 13.7532 24.0742 13.7432 24.0725ZM14.0732 23.9313L14.0557 23.9338L13.8257 24.05L13.8132 24.0625L13.8095 24.0763L13.832 24.6138L13.8382 24.6288L13.8482 24.6388L14.0995 24.7538C14.1153 24.758 14.1274 24.7546 14.1357 24.7438L14.1407 24.7263L14.0982 23.9588C14.094 23.943 14.0857 23.9338 14.0732 23.9313ZM13.1795 23.9338C13.1739 23.9305 13.1674 23.9294 13.1611 23.9308C13.1548 23.9322 13.1493 23.9359 13.1457 23.9413L13.1382 23.9588L13.0957 24.7263C13.0965 24.7413 13.1036 24.7513 13.117 24.7563L13.1357 24.7538L13.387 24.6375L13.3995 24.6275L13.4032 24.6138L13.4257 24.0763L13.422 24.0613L13.4095 24.0488L13.1795 23.9338Z" fill="#0E8C7D"/>
<path fill-rule="evenodd" clip-rule="evenodd" d="M17.705 0C18.4013 2.366e-05 19.0839 0.193918 19.6762 0.559961C20.2685 0.926005 20.7473 1.44974 21.0588 2.0725L22.7913 5.53625C23.0963 5.41125 23.3963 5.27625 23.6913 5.13125C23.988 4.98306 24.3314 4.95881 24.646 5.06383C24.9606 5.16885 25.2206 5.39454 25.3688 5.69125C25.5169 5.98796 25.5412 6.33139 25.4362 6.64598C25.3312 6.96057 25.1055 7.22056 24.8088 7.36875C24.5083 7.50247 24.2062 7.63248 23.9025 7.75875L25.1038 10.1625C25.3645 10.6837 25.5002 11.2585 25.5 11.8413V15C25.5 15.5276 25.3886 16.0493 25.1733 16.5309C24.9579 17.0125 24.6433 17.4433 24.25 17.795V19.375C24.25 19.8723 24.0525 20.3492 23.7008 20.7008C23.3492 21.0525 22.8723 21.25 22.375 21.25C21.8777 21.25 21.4008 21.0525 21.0492 20.7008C20.6975 20.3492 20.5 19.8723 20.5 19.375V18.75H5.5V19.375C5.5 19.8723 5.30246 20.3492 4.95083 20.7008C4.5992 21.0525 4.12228 21.25 3.625 21.25C3.12772 21.25 2.65081 21.0525 2.29918 20.7008C1.94754 20.3492 1.75 19.8723 1.75 19.375V17.795C0.9825 17.1075 0.5 16.11 0.5 15V11.84C0.500234 11.2581 0.635895 10.6842 0.89625 10.1638L2.0875 7.77875C1.78583 7.65208 1.48792 7.51583 1.19375 7.37C0.898539 7.21988 0.674137 6.95978 0.568916 6.64575C0.463695 6.33172 0.486081 5.98893 0.63125 5.69125C0.704573 5.54429 0.80614 5.41321 0.930146 5.30552C1.05415 5.19783 1.19816 5.11563 1.35395 5.06362C1.50974 5.01162 1.67425 4.99082 1.83808 5.00243C2.00191 5.01403 2.16185 5.0578 2.30875 5.13125C2.60458 5.27708 2.90458 5.41208 3.20875 5.53625L4.94125 2.07375C5.25256 1.45076 5.73121 0.926766 6.32356 0.560493C6.91591 0.19422 7.59856 0.00013973 8.295 0H17.705ZM7.375 11.25C6.87772 11.25 6.40081 11.4475 6.04918 11.7992C5.69754 12.1508 5.5 12.6277 5.5 13.125C5.5 13.6223 5.69754 14.0992 6.04918 14.4508C6.40081 14.8025 6.87772 15 7.375 15C7.87228 15 8.3492 14.8025 8.70083 14.4508C9.05246 14.0992 9.25 13.6223 9.25 13.125C9.25 12.6277 9.05246 12.1508 8.70083 11.7992C8.3492 11.4475 7.87228 11.25 7.375 11.25ZM18.625 11.25C18.1277 11.25 17.6508 11.4475 17.2992 11.7992C16.9475 12.1508 16.75 12.6277 16.75 13.125C16.75 13.6223 16.9475 14.0992 17.2992 14.4508C17.6508 14.8025 18.1277 15 18.625 15C19.1223 15 19.5992 14.8025 19.9508 14.4508C20.3025 14.0992 20.5 13.6223 20.5 13.125C20.5 12.6277 20.3025 12.1508 19.9508 11.7992C19.5992 11.4475 19.1223 11.25 18.625 11.25ZM17.705 2.5H8.295C8.08926 2.49997 7.88669 2.55072 7.70527 2.64776C7.52385 2.74479 7.36919 2.88511 7.255 3.05625L7.1775 3.19125L5.59 6.36375C7.525 6.94375 10.1325 7.5 13 7.5C15.6775 7.5 18.1263 7.015 20.0125 6.47875L20.4088 6.36375L18.8225 3.19125C18.7305 3.00727 18.5945 2.84883 18.4266 2.73C18.2587 2.61116 18.0641 2.53559 17.86 2.51L17.7063 2.5H17.705Z" fill="#0E8C7D"/>
</svg>
