<svg width="907" height="109" viewBox="0 0 907 109" fill="none" xmlns="http://www.w3.org/2000/svg">
<path d="M13.5762 46.7641L55.568 105.936L107.67 82.7782L139.035 69.3694L256.692 56.9397L457.409 58.2639L490.458 58.2638L593.165 58.5025L610.842 44.6094L770.771 53.5191L788.227 74.9421L851.242 74.1773L893.024 15.3711" stroke="white" stroke-width="5.18914" stroke-linecap="round" stroke-linejoin="round"/>
<path d="M18.7038 57.5774C23.3089 54.9234 24.8905 49.0387 22.2365 44.4336C19.5824 39.8285 13.6977 38.2469 9.09263 40.9009C4.48755 43.555 2.90594 49.4397 5.56 54.0448C8.21407 58.6499 14.0988 60.2315 18.7038 57.5774Z" fill="white" fill-opacity="0.5"/>
<path d="M899.691 19.6386C903.692 17.3329 905.066 12.2205 902.76 8.21978C900.454 4.21907 895.342 2.84504 891.341 5.15078C887.34 7.45653 885.966 12.5689 888.272 16.5696C890.578 20.5703 895.69 21.9444 899.691 19.6386Z" fill="#FFD8A3" stroke="white" stroke-opacity="0.5" stroke-width="2.52608"/>
</svg>
