<svg width="40" height="40" viewBox="0 0 40 40" fill="none" xmlns="http://www.w3.org/2000/svg">
<path d="M13.2834 16.4768H26.7167M13.2834 23.5235H22.8634M20.0001 35.4168C23.3491 35.4161 26.6067 34.3249 29.2804 32.3082C31.9541 30.2915 33.8984 27.459 34.8192 24.2391C35.74 21.0192 35.5873 17.5871 34.3842 14.4617C33.1811 11.3363 30.9929 8.68765 28.1507 6.91635C25.3085 5.14506 21.9668 4.34744 18.631 4.64413C15.2952 4.94081 12.1467 6.31566 9.66171 8.56076C7.17672 10.8058 5.49037 13.7991 4.85769 17.0877C4.22502 20.3764 4.68044 23.7817 6.15508 26.7885C6.33508 27.1552 6.39508 27.5685 6.30341 27.9652L4.94341 33.8585C4.90507 34.0239 4.90947 34.1963 4.95619 34.3595C5.00291 34.5228 5.09042 34.6714 5.21047 34.7915C5.33052 34.9115 5.47916 34.999 5.64238 35.0457C5.8056 35.0925 5.97802 35.0968 6.14341 35.0585L12.0351 33.6968C12.4329 33.6097 12.8485 33.6627 13.2117 33.8468C15.3241 34.8842 17.6468 35.4214 20.0001 35.4168Z" stroke="#FF4848" stroke-width="2" stroke-linecap="round" stroke-linejoin="round"/>
</svg>
