<svg width="20" height="20" viewBox="0 0 20 20" fill="none" xmlns="http://www.w3.org/2000/svg">
<g clip-path="url(#clip0_62_6588)">
<path d="M17.8065 18.1264C14.7461 20.6247 5.19034 20.6247 2.19243 18.1264C-0.867925 15.6282 -0.555649 4.9482 2.19243 2.13768C4.94051 -0.672846 15.0584 -0.672846 17.8065 2.13768C20.5546 4.9482 20.8668 15.6282 17.8065 18.1264Z" fill="#8DC640"/>
<g opacity="0.2">
<path opacity="0.2" d="M10.0626 13.7544C7.31448 15.9404 4.25413 17.0646 1.38116 17.127C-0.742369 13.5046 -0.305156 4.69826 2.19309 2.13756C4.44151 -0.173301 11.499 -0.610513 15.5587 0.825972C16.558 4.94809 14.497 10.1944 10.0626 13.7544Z" fill="white"/>
</g>
<path d="M8.56383 15.5658C8.12661 15.5658 7.68945 15.3784 7.43962 15.0037L3.94209 10.5069C3.44244 9.88233 3.56737 9.00795 4.19192 8.50829C4.81647 8.00864 5.69086 8.13357 6.19051 8.75812L8.56383 11.8185L13.8102 5.01077C14.3098 4.38622 15.1842 4.26128 15.8087 4.76094C16.4333 5.2606 16.5582 6.13498 16.0586 6.75953L9.68804 15.0037C9.37576 15.316 9.00104 15.5658 8.56383 15.5658Z" fill="white"/>
</g>
<defs>
<clipPath id="clip0_62_6588">
<rect width="20" height="20" fill="white"/>
</clipPath>
</defs>
</svg>
