<svg width="26" height="28" viewBox="0 0 26 28" fill="none" xmlns="http://www.w3.org/2000/svg">
<path d="M22.496 14.2188H3.21362C2.84073 14.2188 2.4831 14.3801 2.21943 14.6672C1.95575 14.9544 1.80762 15.3439 1.80762 15.75V19.25C1.80762 19.6561 1.95575 20.0456 2.21943 20.3328C2.4831 20.6199 2.84073 20.7813 3.21362 20.7813H22.496C22.8689 20.7813 23.2265 20.6199 23.4902 20.3328C23.7538 20.0456 23.902 19.6561 23.902 19.25V15.75C23.902 15.3439 23.7538 14.9544 23.4902 14.6672C23.2265 14.3801 22.8689 14.2188 22.496 14.2188ZM3.01276 19.25V15.75C3.01276 15.692 3.03393 15.6363 3.07159 15.5953C3.10926 15.5543 3.16035 15.5313 3.21362 15.5313H8.23507V19.4688H3.21362C3.16035 19.4688 3.10926 19.4457 3.07159 19.4047C3.03393 19.3637 3.01276 19.308 3.01276 19.25ZM22.6968 19.25C22.6968 19.308 22.6757 19.3637 22.638 19.4047C22.6003 19.4457 22.5492 19.4688 22.496 19.4688H9.44021V15.5313H22.496C22.5492 15.5313 22.6003 15.5543 22.638 15.5953C22.6757 15.6363 22.6968 15.692 22.6968 15.75V19.25ZM20.3639 6.67844C21.1482 5.16032 21.1583 4.28203 21.0287 3.81282C20.972 3.56729 20.8307 3.35498 20.634 3.22C20.5096 3.15694 20.4086 3.04948 20.3479 2.91541C20.2871 2.78135 20.2702 2.62871 20.3 2.48276C20.3297 2.33681 20.4043 2.2063 20.5115 2.11283C20.6186 2.01936 20.7518 1.96853 20.8891 1.96875C20.9736 1.96847 21.0571 1.98786 21.1342 2.02563C21.3791 2.16227 21.5963 2.35122 21.7729 2.58122C21.9494 2.81122 22.0815 3.07756 22.1615 3.36438C22.4809 4.41219 22.2298 5.74328 21.4144 7.32157C20.63 8.83969 20.62 9.71797 20.7495 10.1872C20.8048 10.4313 20.9444 10.6428 21.1392 10.7778C21.2644 10.84 21.3664 10.9469 21.428 11.0809C21.4897 11.2149 21.5074 11.3679 21.4782 11.5143C21.449 11.6608 21.3746 11.792 21.2674 11.886C21.1602 11.9801 21.0267 12.0313 20.8891 12.0313C20.8046 12.0315 20.7211 12.0121 20.6441 11.9744C20.3991 11.8377 20.1819 11.6488 20.0054 11.4188C19.8289 11.1888 19.6967 10.9224 19.6167 10.6356C19.2973 9.58782 19.5484 8.25672 20.3639 6.67844ZM16.3467 6.67844C17.1311 5.16032 17.1411 4.28203 17.0115 3.81282C16.9549 3.56729 16.8135 3.35498 16.6169 3.22C16.4924 3.15694 16.3914 3.04948 16.3307 2.91541C16.2699 2.78135 16.2531 2.62871 16.2828 2.48276C16.3126 2.33681 16.3872 2.2063 16.4943 2.11283C16.6015 2.01936 16.7347 1.96853 16.872 1.96875C16.9564 1.96847 17.04 1.98786 17.117 2.02563C17.362 2.16227 17.5792 2.35122 17.7557 2.58122C17.9322 2.81122 18.0644 3.07756 18.1444 3.36438C18.4638 4.41219 18.2127 5.74328 17.3972 7.32157C16.6128 8.83969 16.6028 9.71797 16.7324 10.1872C16.7877 10.4313 16.9272 10.6428 17.122 10.7778C17.2473 10.84 17.3492 10.9469 17.4109 11.0809C17.4725 11.2149 17.4902 11.3679 17.461 11.5143C17.4318 11.6608 17.3574 11.792 17.2503 11.886C17.1431 11.9801 17.0096 12.0313 16.872 12.0313C16.7875 12.0315 16.7039 12.0121 16.6269 11.9744C16.3819 11.8377 16.1647 11.6488 15.9882 11.4188C15.8117 11.1888 15.6795 10.9224 15.5995 10.6356C15.2802 9.58782 15.5312 8.25672 16.3467 6.67844Z" fill="#FF4848"/>
</svg>
