<svg width="20" height="20" viewBox="0 0 20 20" fill="none" xmlns="http://www.w3.org/2000/svg">
<path d="M6.36875 3.49375C5.4625 4.0975 5 4.8625 5 5.625C5 6.3875 5.4625 7.1525 6.36875 7.75625C7.27125 8.3575 8.5525 8.75 10 8.75C11.4475 8.75 12.7287 8.3575 13.6312 7.75625C14.5375 7.1525 15 6.3875 15 5.625C15 4.8625 14.5375 4.0975 13.6312 3.49375C12.7287 2.8925 11.4475 2.5 10 2.5C8.5525 2.5 7.27125 2.8925 6.36875 3.49375ZM5.67625 2.45375C6.81 1.6975 8.34 1.25 10 1.25C11.66 1.25 13.19 1.6975 14.325 2.45375C15.4525 3.20625 16.25 4.31625 16.25 5.625C16.25 6.935 15.4537 8.04375 14.325 8.79625C13.1888 9.5525 11.6588 10 10 10C8.34125 10 6.81 9.5525 5.675 8.79625C4.5475 8.04375 3.75 6.93375 3.75 5.625C3.75 4.315 4.5475 3.20625 5.67625 2.45375ZM16.065 8.9325C15.7492 9.25833 15.3908 9.55542 14.99 9.82375C14.9967 9.88208 15 9.94083 15 10C15 10.7625 14.5375 11.5275 13.6312 12.1313C12.7287 12.7325 11.4475 13.125 10 13.125C8.5525 13.125 7.27125 12.7325 6.36875 12.1313C5.4625 11.5275 5 10.7625 5 10C5 9.94167 5.00292 9.88292 5.00875 9.82375C4.62002 9.56537 4.25969 9.26662 3.93375 8.9325C3.81322 9.27555 3.7511 9.63639 3.75 10C3.75 11.31 4.54625 12.4187 5.675 13.1712C6.81 13.9275 8.34 14.375 10 14.375C11.66 14.375 13.19 13.9275 14.325 13.1712C15.4525 12.4187 16.25 11.3088 16.25 10C16.2489 9.63639 16.1855 9.27555 16.065 8.9325ZM16.0662 13.3075C15.7504 13.6333 15.3921 13.9304 14.9913 14.1988C14.9971 14.2571 15 14.3158 15 14.375C15 15.1375 14.5375 15.9025 13.6312 16.5063C12.7287 17.1075 11.4475 17.5 10 17.5C8.5525 17.5 7.27125 17.1075 6.36875 16.5063C5.4625 15.9025 5 15.1375 5 14.375C5 14.3167 5.00292 14.2579 5.00875 14.1988C4.62002 13.9404 4.25969 13.6416 3.93375 13.3075C3.81322 13.6505 3.7511 14.0114 3.75 14.375C3.75 15.685 4.54625 16.7937 5.675 17.5462C6.81 18.3025 8.34 18.75 10 18.75C11.66 18.75 13.19 18.3025 14.325 17.5462C15.4537 16.7937 16.25 15.6838 16.25 14.375C16.2489 14.0114 16.1868 13.6505 16.0662 13.3075Z" fill="black"/>
</svg>
