<svg width="32" height="31" viewBox="0 0 32 31" fill="none" xmlns="http://www.w3.org/2000/svg">
<path d="M11.7561 20.5546C12.4975 20.5548 13.2152 20.8158 13.7835 21.292L13.9887 21.4799L15.5677 23.0588L17.1466 21.4799C17.6709 20.9557 18.3628 20.6326 19.1013 20.5673L19.3792 20.5546H25.7329C26.741 20.5546 27.7227 20.8761 28.5355 21.4724C29.3482 22.0688 29.9495 22.9088 30.2519 23.8704L30.3292 24.142L31.065 27.0852C31.1481 27.4174 31.1581 27.7636 31.0944 28.1C31.0307 28.4365 30.8948 28.7551 30.6961 29.034C30.4974 29.3128 30.2406 29.5453 29.9434 29.7153C29.6462 29.8853 29.3156 29.9889 28.9745 30.0188L28.7677 30.0283H2.36767C2.02532 30.0282 1.68707 29.9539 1.37622 29.8105C1.06536 29.6671 0.789296 29.4579 0.567034 29.1976C0.344772 28.9372 0.181599 28.6317 0.0887576 28.3022C-0.00408394 27.9727 -0.0243874 27.627 0.0292464 27.2888L0.0702991 27.0852L0.806089 24.142C1.05062 23.164 1.60082 22.2895 2.37663 21.6457C3.15245 21.0019 4.11342 20.6225 5.11977 20.5625L5.4024 20.5546H11.7561ZM15.5677 0.0283203C16.8056 0.0283203 18.1903 0.32832 19.3256 0.645689C21.8456 1.34832 23.3392 3.63937 23.4545 6.03779L23.4624 6.33779V12.6646C23.4624 15.172 21.9513 17.6273 19.3256 18.3583C18.1903 18.6741 16.8056 18.9757 15.5677 18.9757C14.3298 18.9757 12.945 18.6757 11.8098 18.3583C9.28977 17.6557 7.79609 15.3646 7.68082 12.9662L7.67293 12.6662V6.33779C7.67293 3.832 9.18398 1.37516 11.8098 0.64411C12.945 0.329899 14.3298 0.0283203 15.5677 0.0283203Z" fill="#00665A"/>
</svg>
