<svg width="30" height="185" viewBox="0 0 30 185" fill="none" xmlns="http://www.w3.org/2000/svg">
<line x1="15.5" y1="23.5" x2="15.5" y2="84.5" stroke="#B1FFDA" stroke-linecap="round" stroke-dasharray="3.52 3.52"/>
<path d="M15 108.5L15 158.5" stroke="#B1FFDA" stroke-linecap="round" stroke-dasharray="3.52 3.52"/>
<path d="M8.75 172.5V180C8.75 180.354 8.63 180.651 8.39 180.891C8.15 181.131 7.85333 181.251 7.5 181.25C7.14667 181.249 6.85 181.129 6.61 180.89C6.37 180.651 6.25 180.354 6.25 180V161.25C6.25 160.896 6.37 160.599 6.61 160.36C6.85 160.121 7.14667 160.001 7.5 160H16.4687C16.7604 160 17.0208 160.094 17.25 160.281C17.4792 160.469 17.625 160.708 17.6875 161L18 162.5H23.75C24.1042 162.5 24.4012 162.62 24.6412 162.86C24.8812 163.1 25.0008 163.397 25 163.75V173.75C25 174.104 24.88 174.401 24.64 174.641C24.4 174.881 24.1033 175.001 23.75 175H17.2812C16.9896 175 16.7292 174.906 16.5 174.719C16.2708 174.531 16.125 174.292 16.0625 174L15.75 172.5H8.75Z" fill="#FF4848"/>
<path fill-rule="evenodd" clip-rule="evenodd" d="M15.7412 29.0721L15.7262 29.0746L15.6375 29.1183L15.6125 29.1233L15.595 29.1183L15.5062 29.0733C15.4929 29.07 15.4829 29.0725 15.4762 29.0808L15.4713 29.0933L15.45 29.6283L15.4562 29.6533L15.4688 29.6696L15.5987 29.7621L15.6175 29.7671L15.6325 29.7621L15.7625 29.6696L15.7775 29.6496L15.7825 29.6283L15.7612 29.0946C15.7579 29.0812 15.7512 29.0737 15.7412 29.0721ZM16.0712 28.9308L16.0537 28.9333L15.8237 29.0496L15.8112 29.0621L15.8075 29.0758L15.83 29.6133L15.8362 29.6283L15.8463 29.6383L16.0975 29.7533C16.1133 29.7575 16.1254 29.7541 16.1337 29.7433L16.1387 29.7258L16.0963 28.9583C16.0921 28.9425 16.0837 28.9333 16.0712 28.9308ZM15.1775 28.9333C15.172 28.93 15.1654 28.9289 15.1591 28.9303C15.1528 28.9317 15.1473 28.9354 15.1437 28.9408L15.1362 28.9583L15.0938 29.7258C15.0946 29.7408 15.1017 29.7508 15.115 29.7558L15.1337 29.7533L15.385 29.6371L15.3975 29.6271L15.4012 29.6133L15.4237 29.0758L15.42 29.0608L15.4075 29.0483L15.1775 28.9333Z" fill="#0E8C7D"/>
<path fill-rule="evenodd" clip-rule="evenodd" d="M19.705 5C20.4013 5.00002 21.0839 5.19392 21.6762 5.55996C22.2685 5.92601 22.7473 6.44974 23.0588 7.0725L24.7913 10.5363C25.0963 10.4113 25.3963 10.2763 25.6913 10.1313C25.988 9.98306 26.3314 9.95881 26.646 10.0638C26.9606 10.1688 27.2206 10.3945 27.3688 10.6913C27.5169 10.988 27.5412 11.3314 27.4362 11.646C27.3312 11.9606 27.1055 12.2206 26.8088 12.3688C26.5083 12.5025 26.2062 12.6325 25.9025 12.7588L27.1038 15.1625C27.3645 15.6837 27.5002 16.2585 27.5 16.8413V20C27.5 20.5276 27.3886 21.0493 27.1733 21.5309C26.9579 22.0125 26.6433 22.4433 26.25 22.795V24.375C26.25 24.8723 26.0525 25.3492 25.7008 25.7008C25.3492 26.0525 24.8723 26.25 24.375 26.25C23.8777 26.25 23.4008 26.0525 23.0492 25.7008C22.6975 25.3492 22.5 24.8723 22.5 24.375V23.75H7.5V24.375C7.5 24.8723 7.30246 25.3492 6.95083 25.7008C6.5992 26.0525 6.12228 26.25 5.625 26.25C5.12772 26.25 4.65081 26.0525 4.29918 25.7008C3.94754 25.3492 3.75 24.8723 3.75 24.375V22.795C2.9825 22.1075 2.5 21.11 2.5 20V16.84C2.50023 16.2581 2.6359 15.6842 2.89625 15.1638L4.0875 12.7788C3.78583 12.6521 3.48792 12.5158 3.19375 12.37C2.89854 12.2199 2.67414 11.9598 2.56892 11.6458C2.46369 11.3317 2.48608 10.9889 2.63125 10.6913C2.70457 10.5443 2.80614 10.4132 2.93015 10.3055C3.05415 10.1978 3.19816 10.1156 3.35395 10.0636C3.50974 10.0116 3.67425 9.99082 3.83808 10.0024C4.00191 10.014 4.16185 10.0578 4.30875 10.1313C4.60458 10.2771 4.90458 10.4121 5.20875 10.5363L6.94125 7.07375C7.25256 6.45076 7.73121 5.92677 8.32356 5.56049C8.91591 5.19422 9.59856 5.00014 10.295 5H19.705ZM9.375 16.25C8.87772 16.25 8.40081 16.4475 8.04918 16.7992C7.69754 17.1508 7.5 17.6277 7.5 18.125C7.5 18.6223 7.69754 19.0992 8.04918 19.4508C8.40081 19.8025 8.87772 20 9.375 20C9.87228 20 10.3492 19.8025 10.7008 19.4508C11.0525 19.0992 11.25 18.6223 11.25 18.125C11.25 17.6277 11.0525 17.1508 10.7008 16.7992C10.3492 16.4475 9.87228 16.25 9.375 16.25ZM20.625 16.25C20.1277 16.25 19.6508 16.4475 19.2992 16.7992C18.9475 17.1508 18.75 17.6277 18.75 18.125C18.75 18.6223 18.9475 19.0992 19.2992 19.4508C19.6508 19.8025 20.1277 20 20.625 20C21.1223 20 21.5992 19.8025 21.9508 19.4508C22.3025 19.0992 22.5 18.6223 22.5 18.125C22.5 17.6277 22.3025 17.1508 21.9508 16.7992C21.5992 16.4475 21.1223 16.25 20.625 16.25ZM19.705 7.5H10.295C10.0893 7.49997 9.88669 7.55072 9.70527 7.64776C9.52385 7.74479 9.36919 7.88511 9.255 8.05625L9.1775 8.19125L7.59 11.3638C9.525 11.9438 12.1325 12.5 15 12.5C17.6775 12.5 20.1263 12.015 22.0125 11.4788L22.4088 11.3638L20.8225 8.19125C20.7305 8.00727 20.5945 7.84883 20.4266 7.73C20.2587 7.61116 20.0641 7.53559 19.86 7.51L19.7063 7.5H19.705Z" fill="#0E8C7D"/>
<path d="M12.5973 110.264C13.3295 110.889 14.0932 111.46 14.875 112.017C15.6585 111.467 16.4184 110.882 17.1527 110.264C18.3768 109.224 19.5287 108.097 20.6001 106.89C23.0699 104.096 25.75 100.046 25.75 95.5C25.75 94.0226 25.4687 92.5597 24.9222 91.1948C24.3757 89.8299 23.5746 88.5897 22.5648 87.545C21.5549 86.5004 20.3561 85.6717 19.0367 85.1064C17.7173 84.541 16.3031 84.25 14.875 84.25C13.4469 84.25 12.0327 84.541 10.7133 85.1064C9.3939 85.6717 8.19505 86.5004 7.18521 87.545C6.17538 88.5897 5.37433 89.8299 4.82781 91.1948C4.28129 92.5597 4 94.0226 4 95.5C4 100.046 6.68008 104.095 9.14992 106.89C10.2212 108.097 11.3732 109.224 12.5973 110.264ZM14.875 99.5625C13.8335 99.5625 12.8346 99.1345 12.0981 98.3726C11.3617 97.6108 10.9479 96.5774 10.9479 95.5C10.9479 94.4226 11.3617 93.3892 12.0981 92.6274C12.8346 91.8655 13.8335 91.4375 14.875 91.4375C15.9165 91.4375 16.9154 91.8655 17.6519 92.6274C18.3883 93.3892 18.8021 94.4226 18.8021 95.5C18.8021 96.5774 18.3883 97.6108 17.6519 98.3726C16.9154 99.1345 15.9165 99.5625 14.875 99.5625Z" fill="#263238"/>
</svg>
