<svg width="26" height="80" viewBox="0 0 26 80" fill="none" xmlns="http://www.w3.org/2000/svg">
<line x1="13.5" y1="15.5" x2="13.5" y2="56.5" stroke="#B1FFDA" stroke-linecap="round" stroke-dasharray="3.52 3.52"/>
<path d="M24.1318 61.8184C22.7439 55.7376 17.417 53 12.7377 53C12.7377 53 12.7377 53 12.7245 53C8.05849 53 2.71834 55.7245 1.33043 61.8052C-0.216103 68.5967 3.96085 74.3484 7.74125 77.9678C9.14238 79.3103 10.9401 79.9816 12.7377 79.9816C14.5354 79.9816 16.3331 79.3103 17.721 77.9678C21.5014 74.3484 25.6784 68.6098 24.1318 61.8184ZM12.7377 68.4124C10.4378 68.4124 8.574 66.5566 8.574 64.2665C8.574 61.9763 10.4378 60.1205 12.7377 60.1205C15.0377 60.1205 16.9015 61.9763 16.9015 64.2665C16.9015 66.5566 15.0377 68.4124 12.7377 68.4124Z" fill="#C02120"/>
<circle cx="12.9042" cy="12.9042" r="11.1446" fill="white" stroke="#00665A" stroke-width="3.51934"/>
</svg>
