<svg width="26" height="114" viewBox="0 0 26 114" fill="none" xmlns="http://www.w3.org/2000/svg">
<line x1="13.5" y1="51.5" x2="13.5" y2="89.5" stroke="#B1FFDA" stroke-linecap="round" stroke-dasharray="3.52 3.52"/>
<path d="M24.1318 95.8184C22.7439 89.7376 17.417 87 12.7377 87C12.7377 87 12.7377 87 12.7245 87C8.05849 87 2.71834 89.7245 1.33043 95.8052C-0.216103 102.597 3.96085 108.348 7.74125 111.968C9.14238 113.31 10.9401 113.982 12.7377 113.982C14.5354 113.982 16.3331 113.31 17.721 111.968C21.5014 108.348 25.6784 102.61 24.1318 95.8184ZM12.7377 102.412C10.4378 102.412 8.574 100.557 8.574 98.2665C8.574 95.9763 10.4378 94.1205 12.7377 94.1205C15.0377 94.1205 16.9015 95.9763 16.9015 98.2665C16.9015 100.557 15.0377 102.412 12.7377 102.412Z" fill="#C02120"/>
<circle cx="12.9042" cy="12.9042" r="11.1446" fill="white" stroke="#00665A" stroke-width="3.51934"/>
</svg>
