<svg width="19" height="22" viewBox="0 0 19 22" fill="none" xmlns="http://www.w3.org/2000/svg">
<path d="M2.75 12.5V20C2.75 20.3542 2.63 20.6513 2.39 20.8913C2.15 21.1313 1.85333 21.2508 1.5 21.25C1.14667 21.2492 0.85 21.1292 0.61 20.89C0.37 20.6508 0.25 20.3542 0.25 20V1.25C0.25 0.895833 0.37 0.599167 0.61 0.36C0.85 0.120833 1.14667 0.000833333 1.5 0H10.4687C10.7604 0 11.0208 0.0937499 11.25 0.28125C11.4792 0.46875 11.625 0.708334 11.6875 1L12 2.5H17.75C18.1042 2.5 18.4012 2.62 18.6412 2.86C18.8812 3.1 19.0008 3.39667 19 3.75V13.75C19 14.1042 18.88 14.4013 18.64 14.6413C18.4 14.8813 18.1033 15.0008 17.75 15H11.2812C10.9896 15 10.7292 14.9063 10.5 14.7188C10.2708 14.5313 10.125 14.2917 10.0625 14L9.75 12.5H2.75Z" fill="#FF4848"/>
</svg>
