<svg width="174" height="52" viewBox="0 0 174 52" fill="none" xmlns="http://www.w3.org/2000/svg">
<g clip-path="url(#clip0_62_4026)">
<path fill-rule="evenodd" clip-rule="evenodd" d="M167.553 52H6.44682C2.8937 52 0 49.0693 0 45.5V6.5C0 2.91771 2.8937 0 6.44682 0H167.553C171.103 0 174 2.91771 174 6.5V45.5C174 49.0693 171.103 52 167.553 52Z" fill="black"/>
<path fill-rule="evenodd" clip-rule="evenodd" d="M167.553 1.04065C170.533 1.04065 172.972 3.49476 172.972 6.5V45.5C172.972 48.5052 170.549 50.9594 167.553 50.9594H6.44682C3.46668 50.9594 1.02752 48.5052 1.02752 45.5V6.5C1.02752 3.49476 3.45068 1.04065 6.44682 1.04065C6.44682 1.04065 167.553 1.04065 167.553 1.04065ZM167.553 0H6.44682C2.8937 0 0 2.93067 0 6.5V45.5C0 49.0823 2.8937 52 6.44682 52H167.553C171.103 52 174 49.0823 174 45.5V6.5C174 2.93067 171.103 0 167.553 0Z" fill="#A6A6A6"/>
<path d="M91.6636 17.2014C90.5016 17.2014 89.5221 16.7897 88.7475 15.9792C87.9792 15.1914 87.5503 14.1054 87.5695 12.9967C87.5695 11.8134 87.9664 10.8116 88.7475 10.0174C89.5189 9.20689 90.4984 8.79517 91.6604 8.79517C92.8095 8.79517 93.789 9.20689 94.5765 10.0174C95.3575 10.8376 95.7544 11.8393 95.7544 12.9967C95.7416 14.1832 95.3447 15.1849 94.5765 15.976C93.805 16.7929 92.8255 17.2014 91.6636 17.2014ZM57.0898 17.2014C55.9534 17.2014 54.9675 16.7962 54.1609 15.9954C53.3606 15.1979 52.9541 14.1897 52.9541 12.9999C52.9541 11.8101 53.3606 10.8019 54.1609 10.0044C54.9515 9.20365 55.9374 8.79841 57.0898 8.79841C57.6531 8.79841 58.2005 8.91187 58.7255 9.14205C59.2408 9.36574 59.6602 9.67048 59.9707 10.0433L60.0475 10.1373L59.18 10.9997L59.0904 10.8927C58.6006 10.3026 57.9444 10.0141 57.077 10.0141C56.3023 10.0141 55.6269 10.2929 55.0699 10.844C54.5098 11.3984 54.2249 12.1246 54.2249 13.0031C54.2249 13.8817 54.5098 14.6079 55.0699 15.1622C55.6269 15.7134 56.3023 15.9922 57.077 15.9922C57.9028 15.9922 58.5974 15.7134 59.1384 15.1622C59.4585 14.8381 59.657 14.3842 59.7274 13.8104H56.9457V12.5979H60.9213L60.9373 12.7081C60.9662 12.9124 60.995 13.1231 60.995 13.3176C60.995 14.4361 60.6621 15.3406 60.0027 16.0084C59.2536 16.7994 58.2741 17.2014 57.0898 17.2014ZM103.059 17.0296H101.833L98.0783 10.9445L98.1103 12.0403V17.0263H96.8844V8.97023H98.2832L98.3216 9.03182L101.852 14.7635L101.82 13.671V8.97023H103.059V17.0296V17.0296ZM82.4511 17.0296H81.2092V10.1827H79.0549V8.97023H84.6022V10.1827H82.4479V17.0296H82.4511ZM78.0434 17.0296H76.8046V8.97023H78.0434V17.0296ZM71.0813 17.0296H69.8425V10.1827H67.6882V8.97023H73.2355V10.1827H71.0813V17.0296ZM66.904 17.0166H62.1537V8.97023H66.904V10.1827H63.3957V12.3937H66.5615V13.5932H63.3957V15.8041H66.904V17.0166ZM89.6565 15.146C90.2103 15.7069 90.8825 15.9889 91.6636 15.9889C92.467 15.9889 93.1232 15.7134 93.6706 15.146C94.2147 14.5949 94.49 13.872 94.49 12.9999C94.49 12.1278 94.2147 11.4016 93.6738 10.8538C93.12 10.2929 92.4446 10.0109 91.6668 10.0109C90.8633 10.0109 90.2071 10.2864 89.663 10.8538C89.1188 11.4049 88.8435 12.1278 88.8435 12.9999C88.8435 13.872 89.1156 14.5982 89.6565 15.146Z" fill="white"/>
<path fill-rule="evenodd" clip-rule="evenodd" d="M87.4546 28.2823C84.4297 28.2823 81.9777 30.6067 81.9777 33.813C81.9777 36.99 84.4457 39.3436 87.4546 39.3436C90.4796 39.3436 92.9316 37.003 92.9316 33.813C92.9316 30.6067 90.4796 28.2823 87.4546 28.2823ZM87.4546 37.1521C85.7997 37.1521 84.3753 35.7646 84.3753 33.8C84.3753 31.8062 85.8029 30.4479 87.4546 30.4479C89.1096 30.4479 90.534 31.8062 90.534 33.8C90.5372 35.7776 89.1096 37.1521 87.4546 37.1521ZM75.5053 28.2823C72.4803 28.2823 70.0284 30.6067 70.0284 33.813C70.0284 36.99 72.4964 39.3436 75.5053 39.3436C78.5302 39.3436 80.9822 37.003 80.9822 33.813C80.9822 30.6067 78.527 28.2823 75.5053 28.2823ZM75.5053 37.1521C73.8504 37.1521 72.4259 35.7646 72.4259 33.8C72.4259 31.8062 73.8536 30.4479 75.5053 30.4479C77.1602 30.4479 78.5847 31.8062 78.5847 33.8C78.5847 35.7776 77.1602 37.1521 75.5053 37.1521ZM61.2864 29.9713V32.312H66.8338C66.6641 33.6249 66.2352 34.5943 65.579 35.2589C64.7659 36.0823 63.5111 36.9771 61.2992 36.9771C57.8902 36.9771 55.2237 34.189 55.2237 30.7364C55.2237 27.2838 57.8902 24.4958 61.2992 24.4958C63.1398 24.4958 64.481 25.2317 65.4765 26.1718L67.1155 24.512C65.7326 23.1698 63.892 22.1422 61.312 22.1422C56.6354 22.1422 52.7109 26 52.7109 30.7234C52.7109 35.4599 56.6322 39.3047 61.312 39.3047C63.8376 39.3047 65.7326 38.4683 67.2307 36.8928C68.7576 35.3464 69.2409 33.1646 69.2409 31.4042C69.2409 30.8564 69.1993 30.3636 69.1129 29.9454H61.2832C61.2864 29.9422 61.2864 29.9713 61.2864 29.9713ZM119.445 31.7933C118.988 30.5516 117.605 28.2693 114.769 28.2693C111.958 28.2693 109.622 30.5095 109.622 33.8C109.622 36.9057 111.933 39.3307 115.041 39.3307C117.538 39.3307 118.991 37.7843 119.59 36.8766L117.736 35.6187C117.122 36.5426 116.267 37.1489 115.054 37.1489C113.828 37.1489 112.97 36.5848 112.4 35.4728L119.702 32.4092C119.702 32.4125 119.445 31.7933 119.445 31.7933ZM112 33.6412C111.942 31.5047 113.639 30.4187 114.852 30.4187C115.809 30.4187 116.606 30.8953 116.878 31.589L112 33.6412ZM106.068 39H108.466V22.7516H106.068V39ZM102.131 29.511H102.045C101.504 28.8594 100.476 28.2693 99.1639 28.2693C96.4399 28.2693 93.9303 30.6975 93.9303 33.8162C93.9303 36.922 96.4271 39.321 99.1639 39.321C100.46 39.321 101.504 38.7277 102.045 38.0631H102.131V38.8574C102.131 40.9678 101.017 42.1057 99.2215 42.1057C97.7523 42.1057 96.84 41.0359 96.4687 40.1412L94.3848 41.0229C94.9834 42.4818 96.5807 44.2875 99.2183 44.2875C102.029 44.2875 104.41 42.6115 104.41 38.5234V28.6H102.144V29.511C102.147 29.511 102.131 29.511 102.131 29.511ZM99.3784 37.1521C97.7235 37.1521 96.3406 35.7516 96.3406 33.8162C96.3406 31.8646 97.7235 30.4511 99.3784 30.4511C101.017 30.4511 102.288 31.8808 102.288 33.8162C102.304 35.7516 101.021 37.1521 99.3784 37.1521ZM130.671 22.7516H124.938V39H127.336V32.8469H130.675C133.328 32.8469 135.937 30.8985 135.937 27.8057C135.937 24.713 133.338 22.7516 130.671 22.7516ZM130.742 30.5776H127.333V25.0015H130.742C132.538 25.0015 133.552 26.5025 133.552 27.7895C133.552 29.0636 132.525 30.5776 130.742 30.5776ZM145.546 28.2531C143.805 28.2531 142.009 29.0344 141.267 30.7364L143.392 31.6312C143.85 30.7364 144.689 30.4317 145.575 30.4317C146.817 30.4317 148.072 31.1838 148.101 32.5259V32.6978C147.672 32.4514 146.731 32.0753 145.604 32.0753C143.309 32.0753 140.982 33.3461 140.982 35.7289C140.982 37.9107 142.864 39.3112 144.961 39.3112C146.571 39.3112 147.457 38.5753 148.011 37.7227H148.098V38.9806H150.409V32.7561C150.409 29.8579 148.283 28.2531 145.546 28.2531ZM145.246 37.1521C144.461 37.1521 143.363 36.7631 143.363 35.7646C143.363 34.5067 144.733 34.0302 145.902 34.0302C146.958 34.0302 147.457 34.2604 148.085 34.5781C147.912 36.0369 146.696 37.1392 145.246 37.1521ZM158.84 28.6L156.087 35.6479H156.001L153.149 28.6H150.569L154.849 38.4521L152.409 43.9277H154.906L161.491 28.6H158.84ZM137.259 39H139.657V22.7516H137.259V39Z" fill="white"/>
<path fill-rule="evenodd" clip-rule="evenodd" d="M13.3929 9.79371C13.0216 10.1989 12.8071 10.8181 12.8071 11.6286V40.3745C12.8071 41.185 13.0216 41.8042 13.4057 42.1932L13.5049 42.2807L29.4075 26.175V25.8152L13.4921 9.70618L13.3929 9.79371Z" fill="url(#paint0_linear_62_4026)"/>
<path fill-rule="evenodd" clip-rule="evenodd" d="M34.6986 31.5598L29.3945 26.188V25.8119L34.6986 20.4401L34.8139 20.5114L41.0879 24.1229C42.8836 25.1474 42.8836 26.8396 41.0879 27.877L34.8139 31.4885L34.6986 31.5598Z" fill="url(#paint1_linear_62_4026)"/>
<path fill-rule="evenodd" clip-rule="evenodd" d="M34.8142 31.4885L29.3949 26L13.3931 42.2062C13.9788 42.8416 14.9616 42.913 16.0595 42.2938L34.8142 31.4885Z" fill="url(#paint2_linear_62_4026)"/>
<path fill-rule="evenodd" clip-rule="evenodd" d="M34.8142 20.5115L16.0595 9.72246C14.9616 9.08705 13.9756 9.17458 13.3931 9.80999L29.3949 26L34.8142 20.5115Z" fill="url(#paint3_linear_62_4026)"/>
<path opacity="0.2" fill-rule="evenodd" clip-rule="evenodd" d="M34.6989 31.3719L16.0722 42.0896C15.0319 42.6958 14.1036 42.6536 13.505 42.1025L13.4058 42.203L13.505 42.2906C14.1036 42.8384 15.0319 42.8838 16.0722 42.2776L34.827 31.4886L34.6989 31.3719Z" fill="black"/>
<path opacity="0.12" fill-rule="evenodd" clip-rule="evenodd" d="M41.0881 27.689L34.6829 31.3718L34.7981 31.4885L41.0721 27.8771C41.9715 27.3584 42.4133 26.6776 42.4133 26C42.3589 26.6224 41.9011 27.2125 41.0881 27.689Z" fill="black"/>
<path opacity="0.25" fill-rule="evenodd" clip-rule="evenodd" d="M16.0593 9.91054L41.088 24.311C41.901 24.7746 42.3588 25.3809 42.4292 26.0001C42.4292 25.3225 41.9875 24.6417 41.088 24.123L16.0593 9.72251C14.2636 8.68186 12.8071 9.55069 12.8071 11.6287V11.8168C12.8071 9.73548 14.2636 8.88286 16.0593 9.91054Z" fill="white"/>
</g>
<defs>
<linearGradient id="paint0_linear_62_4026" x1="27.9811" y1="11.3185" x2="2.46551" y2="18.0314" gradientUnits="userSpaceOnUse">
<stop stop-color="#00A0FF"/>
<stop offset="0.00657" stop-color="#00A1FF"/>
<stop offset="0.2601" stop-color="#00BEFF"/>
<stop offset="0.5122" stop-color="#00D2FF"/>
<stop offset="0.7604" stop-color="#00DFFF"/>
<stop offset="1" stop-color="#00E3FF"/>
</linearGradient>
<linearGradient id="paint1_linear_62_4026" x1="43.4297" y1="26" x2="12.3704" y2="26" gradientUnits="userSpaceOnUse">
<stop stop-color="#FFE000"/>
<stop offset="0.4087" stop-color="#FFBD00"/>
<stop offset="0.7754" stop-color="#FFA500"/>
<stop offset="1" stop-color="#FF9C00"/>
</linearGradient>
<linearGradient id="paint2_linear_62_4026" x1="31.8674" y1="28.9865" x2="11.0316" y2="63.6126" gradientUnits="userSpaceOnUse">
<stop stop-color="#FF3A44"/>
<stop offset="1" stop-color="#C31162"/>
</linearGradient>
<linearGradient id="paint3_linear_62_4026" x1="9.36364" y1="0.232446" x2="18.6594" y2="15.6971" gradientUnits="userSpaceOnUse">
<stop stop-color="#32A071"/>
<stop offset="0.0685" stop-color="#2DA771"/>
<stop offset="0.4762" stop-color="#15CF74"/>
<stop offset="0.8009" stop-color="#06E775"/>
<stop offset="1" stop-color="#00F076"/>
</linearGradient>
<clipPath id="clip0_62_4026">
<rect width="174" height="52" fill="white"/>
</clipPath>
</defs>
</svg>
