<svg width="24" height="30" viewBox="0 0 24 30" fill="none" xmlns="http://www.w3.org/2000/svg">
<path d="M9.48667 28.0814C10.2947 28.748 11.1373 29.3574 12 29.952C12.8645 29.3653 13.7031 28.7411 14.5133 28.0814C15.864 26.9723 17.1351 25.7698 18.3173 24.4827C21.0427 21.5027 24 17.1827 24 12.3334C24 10.7575 23.6896 9.19708 23.0866 7.74117C22.4835 6.28526 21.5996 4.96239 20.4853 3.84809C19.371 2.73379 18.0481 1.84988 16.5922 1.24682C15.1363 0.643763 13.5759 0.333374 12 0.333374C10.4241 0.333374 8.86371 0.643763 7.4078 1.24682C5.95189 1.84988 4.62902 2.73379 3.51472 3.84809C2.40042 4.96239 1.5165 6.28526 0.913445 7.74117C0.310389 9.19708 -2.34822e-08 10.7575 0 12.3334C0 17.1827 2.95733 21.5014 5.68267 24.4827C6.86483 25.7703 8.13595 26.9719 9.48667 28.0814ZM12 16.6667C10.8507 16.6667 9.74853 16.2102 8.93587 15.3975C8.12321 14.5848 7.66667 13.4826 7.66667 12.3334C7.66667 11.1841 8.12321 10.0819 8.93587 9.26924C9.74853 8.45659 10.8507 8.00004 12 8.00004C13.1493 8.00004 14.2515 8.45659 15.0641 9.26924C15.8768 10.0819 16.3333 11.1841 16.3333 12.3334C16.3333 13.4826 15.8768 14.5848 15.0641 15.3975C14.2515 16.2102 13.1493 16.6667 12 16.6667Z" fill="#263238"/>
</svg>
