<svg width="30" height="30" viewBox="0 0 30 30" fill="none" xmlns="http://www.w3.org/2000/svg">
<g clip-path="url(#clip0_117_1323)">
<path d="M14.9391 7.07764C12.5889 7.07794 10.2603 8.08804 10.5051 10.1064L11.1051 14.4936C11.2104 15.2655 11.7321 16.5 12.5112 16.5H12.5667L13.2048 23.8593C13.2324 24.1905 13.4724 24.4593 13.8048 24.4593H16.2048C16.5372 24.4593 16.7772 24.1905 16.8048 23.8593L17.4429 16.5H17.4987C18.2778 16.5 18.7992 15.2655 18.9048 14.4939L19.5048 10.1061C19.662 8.08624 17.2896 7.07704 14.9391 7.07764Z" fill="#2DA771"/>
<path d="M15.0076 15.2725L14.9932 15.3103C14.998 15.2989 15.0013 15.2872 15.0061 15.2758L15.0076 15.2725Z" fill="#2DA771"/>
<path d="M14.9996 6.3C16.7393 6.3 18.1496 4.8897 18.1496 3.15C18.1496 1.4103 16.7393 0 14.9996 0C13.2599 0 11.8496 1.4103 11.8496 3.15C11.8496 4.8897 13.2599 6.3 14.9996 6.3Z" fill="#2DA771"/>
<path d="M18.2766 20.7275C18.2511 21.0191 18.2241 21.3101 18.1986 21.6017C20.8842 21.9809 22.875 22.8413 23.1 23.9057C23.4351 25.4885 18.2574 26.2007 14.922 26.1674C11.5866 26.1341 6.5043 25.4885 6.9486 23.9054C7.2402 22.8665 9.2022 22.0232 11.8176 21.6305C11.7915 21.338 11.7618 21.0455 11.7366 20.7533C8.3748 21.1241 5.574 22.037 4.455 23.2271H0.6687L0 24.614H3.9498C4.2567 26.246 7.6779 27.6548 12.57 28.0106L12.4026 29.9999H17.2446L17.196 28.0109C22.113 27.6548 25.6311 26.246 26.0502 24.614H30L29.427 23.2271H25.6407C24.5778 22.007 21.7263 21.0791 18.2766 20.7275Z" fill="#2DA771"/>
</g>
<defs>
<clipPath id="clip0_117_1323">
<rect width="30" height="30" fill="white"/>
</clipPath>
</defs>
</svg>
