<svg width="28" height="28" viewBox="0 0 28 28" fill="none" xmlns="http://www.w3.org/2000/svg">
<path d="M8.40019 8.3999C8.40019 8.21425 8.47394 8.0362 8.60522 7.90493C8.73649 7.77365 8.91454 7.6999 9.10019 7.6999H13.3002C13.4858 7.6999 13.6639 7.77365 13.7952 7.90493C13.9264 8.0362 14.0002 8.21425 14.0002 8.3999C14.0002 8.58556 13.9264 8.7636 13.7952 8.89488C13.6639 9.02615 13.4858 9.0999 13.3002 9.0999H9.10019C8.91454 9.0999 8.73649 9.02615 8.60522 8.89488C8.47394 8.7636 8.40019 8.58556 8.40019 8.3999ZM9.10019 10.4999C8.91454 10.4999 8.73649 10.5737 8.60522 10.7049C8.47394 10.8362 8.40019 11.0143 8.40019 11.1999C8.40019 11.3856 8.47394 11.5636 8.60522 11.6949C8.73649 11.8262 8.91454 11.8999 9.10019 11.8999H11.9002C12.0858 11.8999 12.2639 11.8262 12.3952 11.6949C12.5264 11.5636 12.6002 11.3856 12.6002 11.1999C12.6002 11.0143 12.5264 10.8362 12.3952 10.7049C12.2639 10.5737 12.0858 10.4999 11.9002 10.4999H9.10019ZM11.2002 1.3999C9.74286 1.39941 8.31047 1.77808 7.04377 2.49869C5.77707 3.2193 4.71965 4.25707 3.97539 5.51002C3.23113 6.76298 2.82565 8.188 2.79879 9.64509C2.77193 11.1022 3.12462 12.5412 3.82219 13.8207L2.82819 17.3067C2.79322 17.4291 2.79228 17.5587 2.8255 17.6816C2.85871 17.8045 2.92481 17.9161 3.01668 18.0042C3.10855 18.0923 3.22272 18.1537 3.34689 18.1818C3.47107 18.2099 3.60054 18.2035 3.72139 18.1635L6.99459 17.0729C8.11019 17.7176 9.35915 18.097 10.6448 18.1817C11.9305 18.2665 13.2185 18.0543 14.409 17.5617C15.5996 17.069 16.6609 16.3091 17.5108 15.3407C18.3607 14.3723 18.9764 13.2213 19.3104 11.9769C19.6443 10.7324 19.6875 9.42786 19.4366 8.16405C19.1856 6.90025 18.6473 5.7111 17.8633 4.68862C17.0793 3.66613 16.0706 2.83771 14.9152 2.26744C13.7598 1.69717 12.4887 1.40033 11.2002 1.3999ZM4.20019 9.7999C4.20042 8.24675 4.71719 6.73778 5.66914 5.51055C6.62108 4.28332 7.95415 3.40754 9.45845 3.02109C10.9628 2.63463 12.5529 2.75945 13.9785 3.37589C15.404 3.99233 16.5841 5.06539 17.3329 6.42611C18.0817 7.78684 18.3567 9.35797 18.1146 10.8921C17.8725 12.4263 17.127 13.8364 15.9956 14.9004C14.8641 15.9644 13.4109 16.6219 11.8648 16.7693C10.3186 16.9168 8.76738 16.5458 7.45519 15.7149C7.36742 15.6593 7.26836 15.6239 7.1652 15.6113C7.06204 15.5987 6.95737 15.6092 6.85879 15.6421L4.53759 16.4163L5.25159 13.9229C5.27761 13.8311 5.28457 13.7349 5.27205 13.6403C5.25953 13.5457 5.22779 13.4546 5.17879 13.3727C4.53767 12.2913 4.19963 11.0571 4.20019 9.7999ZM17.1866 20.9257L13.8238 19.2457C14.4417 19.073 15.0311 18.8453 15.592 18.5625L17.5002 19.5173L23.8002 16.3673V15.3999C23.8002 15.0286 23.6527 14.6725 23.3901 14.41C23.1276 14.1474 22.7715 13.9999 22.4002 13.9999H20.0566C20.2713 13.551 20.4505 13.0843 20.5942 12.5999H22.4002C23.1428 12.5999 23.855 12.8949 24.3801 13.42C24.9052 13.9451 25.2002 14.6573 25.2002 15.3999V22.3999C25.2002 23.1425 24.9052 23.8547 24.3801 24.3798C23.855 24.9049 23.1428 25.1999 22.4002 25.1999H12.6002C11.8576 25.1999 11.1454 24.9049 10.6203 24.3798C10.0952 23.8547 9.80019 23.1425 9.80019 22.3999V19.5019C10.2575 19.5672 10.7242 19.5999 11.2002 19.5999V22.3999C11.2002 22.7712 11.3477 23.1273 11.6102 23.3899C11.8728 23.6524 12.2289 23.7999 12.6002 23.7999H22.4002C22.7715 23.7999 23.1276 23.6524 23.3901 23.3899C23.6527 23.1273 23.8002 22.7712 23.8002 22.3999V17.9325L17.8138 20.9257C17.7164 20.9745 17.6091 20.9999 17.5002 20.9999C17.3913 20.9999 17.2839 20.9745 17.1866 20.9257Z" fill="#666666"/>
</svg>
