<svg width="52" height="52" viewBox="0 0 52 52" fill="none" xmlns="http://www.w3.org/2000/svg">
<g clip-path="url(#clip0_183_3965)">
<path d="M25.5656 0C39.6967 0 51.1313 11.4346 51.1313 25.5656C51.1313 39.6967 39.6967 51.1313 25.5656 51.1313C11.4346 51.1313 0 39.6967 0 25.5656C0 11.4346 11.4346 0 25.5656 0ZM25.5656 47.9855C37.8991 47.9855 47.9356 37.8991 47.9356 25.5656C47.9356 13.2322 37.8991 3.19571 25.5656 3.19571C13.2322 3.19571 3.19571 13.2322 3.19571 25.5656C3.19571 37.8991 13.2322 47.9855 25.5656 47.9855ZM23.818 27.1635H14.3807C13.4819 27.1635 12.7828 26.4644 12.7828 25.5656C12.7828 24.6669 13.4819 23.9678 14.3807 23.9678H36.7506C37.6494 23.9678 38.3485 24.6669 38.3485 25.5656C38.3485 26.4644 37.6494 27.1635 36.7506 27.1635H23.818Z" fill="#00665A"/>
</g>
<defs>
<clipPath id="clip0_183_3965">
<rect width="51.1313" height="51.1313" fill="white"/>
</clipPath>
</defs>
</svg>
