<svg width="28" height="28" viewBox="0 0 28 28" fill="none" xmlns="http://www.w3.org/2000/svg">
<path d="M10.3684 18.6667H7.20272C6.93315 18.6667 6.79836 18.6667 6.68431 18.6784C6.15473 18.7318 5.65973 18.9692 5.28341 19.3503C4.90709 19.7314 4.67265 20.2327 4.61992 20.769C4.6084 20.8845 4.6084 21.021 4.6084 21.294C4.6084 21.6207 4.6084 21.784 4.62222 21.9135C4.6891 22.5184 4.98672 23.0729 5.45159 23.4587C5.91646 23.8445 6.51178 24.031 7.11056 23.9785C7.23728 23.9669 7.39625 23.9354 7.7119 23.8712L8.0529 23.8012C8.49066 23.7137 8.71069 23.6694 8.89501 23.597C9.26622 23.4518 9.59396 23.2117 9.84631 22.9002C10.0987 22.5886 10.267 22.2161 10.335 21.819C10.3684 21.6207 10.3684 21.3944 10.3684 20.9429V10.8255C10.3684 8.99387 10.3684 8.0792 10.8903 7.43404C11.4133 6.78887 12.2992 6.6092 14.0733 6.24987L16.3773 5.7832C18.9267 5.26637 20.202 5.00854 21.0452 5.70854C21.8885 6.40854 21.8885 7.7257 21.8885 10.3589V10.5M21.8885 10.5V16.3334M21.8885 10.5L10.3684 12.8334M21.8885 16.3334V18.6084C21.8885 19.0622 21.8885 19.2874 21.8539 19.4857C21.7862 19.8825 21.6181 20.2548 21.3662 20.5664C21.1143 20.8779 20.787 21.1182 20.4162 21.2637C20.2308 21.336 20.0119 21.3804 19.573 21.469L19.232 21.539C18.9163 21.602 18.7585 21.6347 18.6295 21.6452C18.0309 21.6974 17.4359 21.5107 16.9712 21.1249C16.5066 20.7391 16.2092 20.1849 16.1423 19.5802C16.1285 19.4519 16.1285 19.2885 16.1285 18.9619C16.1285 18.6877 16.1285 18.5512 16.14 18.4357C16.1927 17.8994 16.4271 17.3981 16.8035 17.017C17.1798 16.6359 17.6748 16.3984 18.2044 16.345C18.3184 16.3334 18.4532 16.3334 18.7228 16.3334H21.8885Z" stroke="#FF4848"/>
</svg>
