<svg width="29" height="28" viewBox="0 0 29 28" fill="none" xmlns="http://www.w3.org/2000/svg">
<path d="M3.0038 19C4.10936 19 5.00663 17.656 5.00663 16C5.00663 14.344 4.10936 13 3.0038 13C1.89824 13 1.00098 14.344 1.00098 16C1.00098 17.656 1.89824 19 3.0038 19ZM9.01228 10C10.1178 10 11.0151 8.656 11.0151 7C11.0151 5.344 10.1178 4 9.01228 4C7.90672 4 7.00945 5.344 7.00945 7C7.00945 8.656 7.90672 10 9.01228 10ZM19.0264 10C20.132 10 21.0292 8.656 21.0292 7C21.0292 5.344 20.132 4 19.0264 4C17.9208 4 17.0236 5.344 17.0236 7C17.0236 8.656 17.9208 10 19.0264 10ZM25.0349 19C26.1404 19 27.0377 17.656 27.0377 16C27.0377 14.344 26.1404 13 25.0349 13C23.9293 13 23.0321 14.344 23.0321 16C23.0321 17.656 23.9293 19 25.0349 19ZM20.0278 20C20.0278 22.76 16.7832 24 14.0193 24C11.2554 24 8.01086 22.76 8.01086 20C8.01086 17.24 10.0137 13 14.0193 13C18.025 13 20.0278 17.24 20.0278 20Z" stroke="#FF4848" stroke-linecap="round" stroke-linejoin="round"/>
</svg>
