<svg width="52" height="52" viewBox="0 0 52 52" fill="none" xmlns="http://www.w3.org/2000/svg">
<g clip-path="url(#clip0_183_3967)">
<path d="M25.5656 0C11.4462 0 0 11.4462 0 25.5656C0 39.6859 11.4462 51.1313 25.5656 51.1313C39.6859 51.1313 51.1313 39.6859 51.1313 25.5656C51.1313 11.4462 39.6859 0 25.5656 0ZM25.5656 47.9859C13.231 47.9859 3.19571 37.9003 3.19571 25.5655C3.19571 13.2309 13.231 3.19561 25.5656 3.19561C37.9003 3.19561 47.9356 13.231 47.9356 25.5655C47.9356 37.9001 37.9003 47.9859 25.5656 47.9859ZM36.7506 23.9678H27.1635V14.3807C27.1635 13.4987 26.4477 12.7828 25.5656 12.7828C24.6836 12.7828 23.9678 13.4987 23.9678 14.3807V23.9678H14.3807C13.4987 23.9678 12.7828 24.6836 12.7828 25.5656C12.7828 26.4477 13.4987 27.1635 14.3807 27.1635H23.9678V36.7506C23.9678 37.6326 24.6836 38.3485 25.5656 38.3485C26.4477 38.3485 27.1635 37.6326 27.1635 36.7506V27.1635H36.7506C37.6326 27.1635 38.3485 26.4477 38.3485 25.5656C38.3485 24.6836 37.6326 23.9678 36.7506 23.9678Z" fill="#00665A"/>
</g>
<defs>
<clipPath id="clip0_183_3967">
<rect width="51.1313" height="51.1313" fill="white"/>
</clipPath>
</defs>
</svg>
