<svg width="30" height="30" viewBox="0 0 30 30" fill="none" xmlns="http://www.w3.org/2000/svg">
<path d="M0 22.5991V24.679C0.00659722 25.588 0.746111 26.3211 1.65514 26.3197H3.48847C4.3966 26.3207 5.13451 25.5871 5.13889 24.679V23.1253H1.65514C1.06181 23.1286 0.482569 22.9444 0 22.5991Z" fill="#FF4848"/>
<path d="M21.3426 7.80566C19.6184 7.81087 18.1508 9.06226 17.873 10.764H24.8121C24.5344 9.06226 23.0669 7.81094 21.3426 7.80566Z" fill="#FF4848"/>
<path d="M7.36089 16.042H3.26367V18.542H7.36089V16.042Z" fill="#FF4848"/>
<path d="M29.1346 12.664C29.1263 12.6561 29.1127 12.6444 29.1049 12.6362L28.3995 11.875H1.98354L0.995833 12.7982C0.989653 12.804 0.980625 12.8167 0.974167 12.8222C0.357708 13.3426 0.00145833 14.1078 0 14.9145V20.3892C0.00784722 21.2943 0.747847 22.0217 1.65299 22.0139C1.65368 22.0139 1.65444 22.0139 1.65514 22.0139H28.3449C29.2499 22.0229 29.991 21.2965 30 20.3914C30 20.3907 30 20.3899 30 20.3892V14.6625C29.9967 13.906 29.684 13.184 29.1346 12.664ZM8.47222 19.0972C8.47222 19.404 8.22347 19.6528 7.91667 19.6528H2.70833C2.40153 19.6528 2.15278 19.404 2.15278 19.0972V15.4861C2.15278 15.1793 2.40153 14.9306 2.70833 14.9306H7.91667C8.22347 14.9306 8.47222 15.1793 8.47222 15.4861V19.0972ZM18.3549 18.9583H18.3545H11.6458C11.339 18.9583 11.0903 18.7096 11.0903 18.4028C11.0903 18.096 11.339 17.8472 11.6458 17.8472H18.3549C18.6617 17.8472 18.9104 18.096 18.9104 18.4028C18.9104 18.7096 18.6617 18.9583 18.3549 18.9583ZM18.3549 16.8056H18.3545H11.6458C11.339 16.8056 11.0903 16.5568 11.0903 16.25C11.0903 15.9432 11.339 15.6944 11.6458 15.6944H18.3549C18.6617 15.6944 18.9104 15.9432 18.9104 16.25C18.9104 16.5568 18.6617 16.8056 18.3549 16.8056ZM27.8472 19.0972C27.8472 19.404 27.5985 19.6528 27.2917 19.6528H22.0833C21.7765 19.6528 21.5278 19.404 21.5278 19.0972V15.4861C21.5278 15.1793 21.7765 14.9306 22.0833 14.9306H27.2917C27.5985 14.9306 27.8472 15.1793 27.8472 15.4861V19.0972Z" fill="#FF4848"/>
<path d="M24.8613 23.1253V24.679C24.8657 25.5872 25.6038 26.3209 26.512 26.3197H28.3454C29.2543 26.3209 29.9936 25.5879 30.0002 24.679V22.5991C29.5176 22.9444 28.9384 23.1286 28.3451 23.1253H24.8613Z" fill="#FF4848"/>
<path d="M26.7359 16.042H22.6387V18.542H26.7359V16.042Z" fill="#FF4848"/>
<path d="M21.3425 6.69456C23.6808 6.69685 25.6503 8.44275 25.9328 10.764H27.8763L25.6426 4.74463C25.4012 4.10303 24.7866 3.67886 24.1011 3.68067H6.33882C5.65327 3.67886 5.03868 4.10303 4.79716 4.74463L2.56348 10.764H16.752C17.0346 8.44275 19.0041 6.69678 21.3425 6.69456Z" fill="#FF4848"/>
</svg>
