<svg width="60" height="60" viewBox="0 0 60 60" fill="none" xmlns="http://www.w3.org/2000/svg">
<path d="M0 45.1978V49.3575C0.0131944 51.1755 1.49222 52.6416 3.31028 52.639H6.97694C8.79319 52.6409 10.269 51.1737 10.2778 49.3575V46.2501H3.31028C2.12361 46.2566 0.965139 45.8883 0 45.1978Z" fill="#FF4848"/>
<path d="M42.6853 15.6113C39.2368 15.6217 36.3015 18.1245 35.7461 21.528H49.6243C49.0689 18.1245 46.1337 15.6219 42.6853 15.6113Z" fill="#FF4848"/>
<path d="M14.7218 32.0835H6.52734V37.0835H14.7218V32.0835Z" fill="#FF4848"/>
<path d="M58.2692 25.3279C58.2525 25.3122 58.2254 25.2887 58.2097 25.2724L56.799 23.75H3.96708L1.99167 25.5964C1.97931 25.6079 1.96125 25.6335 1.94833 25.6444C0.715417 26.6851 0.00291667 28.2156 0 29.829V40.7785C0.0156944 42.5886 1.49569 44.0435 3.30597 44.0278C3.30736 44.0278 3.30889 44.0278 3.31028 44.0278H56.6897C58.4999 44.0458 59.9819 42.5929 60 40.7828C60 40.7814 60 40.7799 60 40.7785V29.325C59.9933 27.8121 59.3679 26.3679 58.2692 25.3279ZM16.9444 38.1944C16.9444 38.8081 16.4469 39.3056 15.8333 39.3056H5.41667C4.80306 39.3056 4.30556 38.8081 4.30556 38.1944V30.9722C4.30556 30.3586 4.80306 29.8611 5.41667 29.8611H15.8333C16.4469 29.8611 16.9444 30.3586 16.9444 30.9722V38.1944ZM36.7097 37.9167H36.709H23.2917C22.6781 37.9167 22.1806 37.4192 22.1806 36.8056C22.1806 36.1919 22.6781 35.6944 23.2917 35.6944H36.7097C37.3233 35.6944 37.8208 36.1919 37.8208 36.8056C37.8208 37.4192 37.3233 37.9167 36.7097 37.9167ZM36.7097 33.6111H36.709H23.2917C22.6781 33.6111 22.1806 33.1136 22.1806 32.5C22.1806 31.8864 22.6781 31.3889 23.2917 31.3889H36.7097C37.3233 31.3889 37.8208 31.8864 37.8208 32.5C37.8208 33.1136 37.3233 33.6111 36.7097 33.6111ZM55.6944 38.1944C55.6944 38.8081 55.1969 39.3056 54.5833 39.3056H44.1667C43.5531 39.3056 43.0556 38.8081 43.0556 38.1944V30.9722C43.0556 30.3586 43.5531 29.8611 44.1667 29.8611H54.5833C55.1969 29.8611 55.6944 30.3586 55.6944 30.9722V38.1944Z" fill="#FF4848"/>
<path d="M49.7227 46.2501V49.3575C49.7314 51.1739 51.2077 52.6412 53.024 52.639H56.6907C58.5086 52.6414 59.9872 51.1753 60.0004 49.3575V45.1978C59.0353 45.8883 57.8768 46.2566 56.6902 46.2501H49.7227Z" fill="#FF4848"/>
<path d="M53.4718 32.0835H45.2773V37.0835H53.4718V32.0835Z" fill="#FF4848"/>
<path d="M42.685 13.3891C47.3617 13.3937 51.3006 16.8855 51.8656 21.528H55.7526L51.2853 9.48926C50.8024 8.20606 49.5732 7.35773 48.2022 7.36134H12.6776C11.3065 7.35773 10.0774 8.20606 9.59431 9.48926L5.12695 21.528H33.504C34.0692 16.8855 38.0082 13.3936 42.685 13.3891Z" fill="#FF4848"/>
</svg>
