<svg width="18" height="18" viewBox="0 0 18 18" fill="none" xmlns="http://www.w3.org/2000/svg">
<g clip-path="url(#clip0_386_4636)">
<path d="M17.6252 17.9998C17.4984 17.9998 17.3769 17.9353 17.3072 17.8235C16.2024 16.055 14.2974 14.9998 12.2132 14.9998H12.0002V16.8748C12.0002 17.0263 11.9087 17.1635 11.7684 17.2213C11.6282 17.279 11.4677 17.2475 11.3597 17.1403L7.60969 13.3903C7.46344 13.244 7.46344 13.0062 7.60969 12.86L11.3597 9.11C11.4669 9.002 11.6282 8.9705 11.7684 9.029C11.9087 9.0875 12.0002 9.22325 12.0002 9.37475V11.261C15.3414 11.456 18.0002 14.2363 18.0002 17.6248C18.0002 17.792 17.8892 17.939 17.7287 17.9848C17.6942 17.9953 17.6597 17.9998 17.6252 17.9998ZM11.6252 14.2498H12.2132C14.0927 14.2498 15.8417 15.0125 17.1024 16.3393C16.5189 13.8553 14.2847 11.9998 11.6252 11.9998C11.4182 11.9998 11.2502 11.8318 11.2502 11.6248V10.28L8.40544 13.1248L11.2502 15.9695V14.6248C11.2502 14.4178 11.4182 14.2498 11.6252 14.2498Z" fill="#666666"/>
<path d="M7.125 15.75H1.875C0.8415 15.75 0 14.9093 0 13.875V4.125C0 3.09075 0.8415 2.25 1.875 2.25H3.375C3.582 2.25 3.75 2.418 3.75 2.625C3.75 2.832 3.582 3 3.375 3H1.875C1.25475 3 0.75 3.50475 0.75 4.125V13.875C0.75 14.4952 1.25475 15 1.875 15H7.125C7.332 15 7.5 15.168 7.5 15.375C7.5 15.582 7.332 15.75 7.125 15.75Z" fill="#666666"/>
<path d="M8.625 4.5H4.125C3.50475 4.5 3 3.99525 3 3.375V1.875C3 1.668 3.168 1.5 3.375 1.5H4.5375C4.71225 0.645 5.469 0 6.375 0C7.281 0 8.03775 0.645 8.2125 1.5H9.375C9.582 1.5 9.75 1.668 9.75 1.875V3.375C9.75 3.99525 9.24525 4.5 8.625 4.5ZM3.75 2.25V3.375C3.75 3.58125 3.918 3.75 4.125 3.75H8.625C8.832 3.75 9 3.58125 9 3.375V2.25H7.875C7.668 2.25 7.5 2.082 7.5 1.875C7.5 1.25475 6.99525 0.75 6.375 0.75C5.75475 0.75 5.25 1.25475 5.25 1.875C5.25 2.082 5.082 2.25 4.875 2.25H3.75Z" fill="#666666"/>
<path d="M10.125 6.75H2.625C2.418 6.75 2.25 6.582 2.25 6.375C2.25 6.168 2.418 6 2.625 6H10.125C10.332 6 10.5 6.168 10.5 6.375C10.5 6.582 10.332 6.75 10.125 6.75Z" fill="#666666"/>
<path d="M9.375 9H2.625C2.418 9 2.25 8.832 2.25 8.625C2.25 8.418 2.418 8.25 2.625 8.25H9.375C9.582 8.25 9.75 8.418 9.75 8.625C9.75 8.832 9.582 9 9.375 9Z" fill="#666666"/>
<path d="M7.125 11.25H2.625C2.418 11.25 2.25 11.082 2.25 10.875C2.25 10.668 2.418 10.5 2.625 10.5H7.125C7.332 10.5 7.5 10.668 7.5 10.875C7.5 11.082 7.332 11.25 7.125 11.25Z" fill="#666666"/>
<path d="M12.375 7.5C12.168 7.5 12 7.332 12 7.125V4.125C12 3.50475 11.4952 3 10.875 3H9.375C9.168 3 9 2.832 9 2.625C9 2.418 9.168 2.25 9.375 2.25H10.875C11.9085 2.25 12.75 3.09075 12.75 4.125V7.125C12.75 7.332 12.582 7.5 12.375 7.5Z" fill="#666666"/>
</g>
<defs>
<clipPath id="clip0_386_4636">
<rect width="18" height="18" fill="white"/>
</clipPath>
</defs>
</svg>
