<svg width="60" height="60" viewBox="0 0 60 60" fill="none" xmlns="http://www.w3.org/2000/svg">
<path fill-rule="evenodd" clip-rule="evenodd" d="M7.33653 36.5404L12.8748 57.2095C12.984 57.6173 12.7398 58.0405 12.3321 58.1497L9.24177 58.9778C8.83407 59.087 8.41091 58.8428 8.30169 58.4348L2.76341 37.7658C2.65407 37.358 2.89841 36.9348 3.3061 36.8256L6.39645 35.9975C6.80415 35.8882 7.22719 36.1325 7.33653 36.5404ZM55.7065 10.9577V24.2605C55.7065 29.6377 53.6026 34.353 49.6957 37.822L41.4831 42.5638C41.5475 41.843 41.4538 41.0864 41.201 40.384L46.3581 36.6775C50.5037 33.6978 52.7279 29.363 52.7279 24.2605V12.6469C52.7279 12.2626 52.4813 11.936 52.1377 11.8165C50.5088 11.1293 49.0403 10.1319 47.8054 8.89699C46.5584 7.65 45.5535 6.165 44.8658 4.51687C44.7258 4.17961 44.3994 3.97605 44.0556 3.97582L26.4457 3.97441C26.0615 3.97441 25.7347 4.22109 25.6153 4.56469C24.9283 6.19359 23.9309 7.66195 22.6959 8.89699C21.449 10.144 19.9638 11.1489 18.3158 11.8366C17.9784 11.9767 17.775 12.303 17.7748 12.6469L17.7734 24.2605C17.7734 29.3398 19.9752 33.6579 24.0885 36.638L20.14 34.3583C19.2065 33.8194 18.2926 33.6404 17.344 33.6896C15.6717 30.9277 14.7949 27.7328 14.7949 24.2605V10.9577C14.7949 10.2795 15.2331 9.7057 15.8874 9.52687C19.4965 8.53992 22.3389 5.69742 23.3258 2.0884C23.5048 1.43414 24.0785 0.996094 24.7568 0.996094H45.7449C46.4231 0.996094 46.9969 1.43414 47.1758 2.0884C48.1628 5.69754 51.0053 8.53992 54.6143 9.52687C55.2683 9.7057 55.7065 10.2796 55.7065 10.9577ZM35.2508 22.0788C33.8093 22.0788 32.6407 23.2474 32.6407 24.6888C32.6407 25.6646 33.1761 26.5153 33.9694 26.9631V29.4947H36.5319V26.9631C37.325 26.5153 37.8607 25.6646 37.8607 24.6888C37.8607 23.2474 36.6921 22.0788 35.2508 22.0788ZM27.1433 17.7404C26.4038 17.7404 25.7987 18.3455 25.7987 19.085V32.4886C25.7987 33.2282 26.4038 33.8332 27.1433 33.8332H43.3582C44.0978 33.8332 44.7028 33.2282 44.7028 32.4886V19.085C44.7028 18.3455 44.0978 17.7404 43.3582 17.7404H41.8432V15.5037C41.8432 11.8778 38.8767 8.91129 35.2507 8.91129C31.6248 8.91129 28.6582 11.8778 28.6582 15.5037V17.7404H27.1433ZM31.1522 17.7404H39.3493V15.5037C39.3493 13.2543 37.5001 11.4052 35.2508 11.4052C33.0015 11.4052 31.1523 13.2546 31.1523 15.5037V17.7404H31.1522ZM50.9701 13.2183C47.668 11.688 45.0143 9.03457 43.4842 5.73234H27.0172C25.4871 9.03469 22.8335 11.6882 19.5313 13.2184V24.2605C19.5313 28.8137 21.4712 32.6004 25.1661 35.2561L29.7063 38.5193C30.0342 38.4816 30.3662 38.4178 30.7023 38.3278L35.0455 37.164C37.0103 36.6376 39.0673 37.3409 40.3267 38.8559L45.3349 35.2562C49.0289 32.6012 50.9701 28.8128 50.9701 24.2606V13.2183ZM14.1532 55.1893C18.552 54.4604 21.5516 55.3159 25.3731 56.4056C26.0922 56.6107 26.841 56.8242 27.5973 57.027C29.123 57.4358 30.5479 57.2494 31.9149 56.4601C39.9033 51.8479 47.8932 47.2384 55.8809 42.6248C56.5377 42.2371 56.9694 41.6493 57.1558 40.9536C57.3331 40.2919 57.3121 39.5413 56.9221 38.9289C56.0768 37.6017 54.587 37.0215 53.1333 37.8622L40.4997 45.1566C39.8325 46.0664 38.8662 46.7639 37.7005 47.0762L31.3493 48.7779C29.9816 49.1443 28.583 49.1701 27.2304 48.807C26.7621 48.6818 26.4839 48.2007 26.609 47.7323C26.7341 47.2641 27.2153 46.9857 27.6836 47.1109C28.7604 47.4 29.8033 47.3746 30.8961 47.0818L37.2473 45.3802C39.0372 44.9006 40.1154 43.0451 39.6333 41.2459C39.1542 39.458 37.2906 38.3797 35.4989 38.8598L31.1557 40.0236C29.0331 40.5925 26.9552 40.32 25.0512 39.2184L19.2613 35.8757C17.7163 34.9836 15.9049 35.6634 13.5363 36.5525C12.3411 37.0011 11.0196 37.4972 9.51821 37.8905L14.1532 55.1893Z" fill="#FF9C00"/>
</svg>
