<svg width="381" height="1" viewBox="0 0 381 1" fill="none" xmlns="http://www.w3.org/2000/svg">
<path fill-rule="evenodd" clip-rule="evenodd" d="M0 0V1H5.01316V0H0ZM25.0658 1H15.0395V0H25.0658V1ZM45.1184 1H35.0921V0H45.1184V1ZM65.171 1H55.1447V0H65.171V1ZM85.2237 1H75.1974V0H85.2237V1ZM105.276 1H95.25V0H105.276V1ZM125.329 1H115.303V0H125.329V1ZM145.382 1H135.355V0H145.382V1ZM165.434 1H155.408V0H165.434V1ZM185.487 1H175.461V0H185.487V1ZM205.539 1H195.513V0H205.539V1ZM225.592 1H215.566V0H225.592V1ZM245.645 1H235.618V0H245.645V1ZM265.697 1H255.671V0H265.697V1ZM285.75 1H275.724V0H285.75V1ZM305.803 1H295.776V0H305.803V1ZM325.855 1H315.829V0H325.855V1ZM345.908 1H335.882V0H345.908V1ZM365.96 1H355.934V0H365.96V1ZM381 1V0H375.987V1H381Z" fill="#D9D8D8"/>
</svg>
