<svg width="60" height="60" viewBox="0 0 60 60" fill="none" xmlns="http://www.w3.org/2000/svg">
<path fill-rule="evenodd" clip-rule="evenodd" d="M46.8705 8.34951C47.2537 8.27217 47.4975 7.90186 47.4213 7.521L46.4732 2.81943C46.3971 2.43857 46.0232 2.19248 45.6447 2.26982C45.2615 2.346 45.0178 2.71748 45.0939 3.09834L45.7033 6.11943C41.2092 3.28232 36.0412 1.79053 30.6717 1.79053C23.1295 1.79053 16.0373 4.72842 10.7053 10.0628C5.36973 15.3972 2.43066 22.4894 2.43066 30.0327C2.43066 35.9882 4.26348 41.6835 7.72871 46.5034C7.86699 46.6944 8.08262 46.7952 8.29824 46.7952C8.44238 46.7952 8.58535 46.753 8.70957 46.6628C9.02598 46.4355 9.09746 45.9972 8.87246 45.6819C5.57949 41.1034 3.83809 35.6917 3.83809 30.0315C3.83809 15.2343 15.8791 3.19561 30.6717 3.19561C35.7729 3.19561 40.6736 4.61123 44.9475 7.30186L41.8947 7.91826C41.5115 7.99443 41.2678 8.36592 41.3439 8.74678C41.4107 9.08076 41.7025 9.31045 42.033 9.31045C42.0764 9.31045 42.1244 9.30576 42.1713 9.29639L46.8705 8.34951ZM43.0654 22.0675L41.7354 22.8327C41.4002 23.0272 41.2854 23.4573 41.4822 23.7937C41.6111 24.0187 41.8455 24.1452 42.0904 24.1452C42.21 24.1452 42.3295 24.1147 42.4397 24.0515L43.7697 23.2839C44.7131 25.1108 45.2873 27.1604 45.3916 29.3308H43.8553C43.4674 29.3308 43.1522 29.646 43.1522 30.0339C43.1522 30.4218 43.4686 30.737 43.8553 30.737H45.3916C45.2861 32.9073 44.7119 34.9558 43.7697 36.7839L42.4397 36.0175C42.1045 35.8241 41.6744 35.939 41.4822 36.2741C41.2865 36.6105 41.4014 37.0405 41.7354 37.2351L43.0654 38.0003C41.9217 39.771 40.4088 41.2839 38.6381 42.4253L37.8729 41.0987C37.6818 40.7624 37.2506 40.6476 36.9107 40.8409C36.5756 41.0355 36.4607 41.4655 36.6576 41.8019L37.4229 43.1296C35.5947 44.0753 33.5463 44.6495 31.3736 44.7515V43.2163C31.3736 42.8284 31.0631 42.5132 30.6705 42.5132C30.2826 42.5132 29.9721 42.8284 29.9721 43.2163V44.7515C27.7994 44.6495 25.751 44.0753 23.9229 43.1296L24.6881 41.8019C24.8838 41.4655 24.7689 41.0355 24.435 40.8409C24.0998 40.6476 23.6697 40.7624 23.4729 41.0987L22.7076 42.4253C20.9369 41.2827 19.424 39.771 18.2803 38.0003L19.6057 37.2351C19.9455 37.0417 20.0604 36.6105 19.8646 36.2741C19.6736 35.9378 19.2424 35.823 18.9072 36.0175L17.5771 36.7839C16.6291 34.9569 16.0549 32.9085 15.9553 30.737H17.4916C17.8795 30.737 18.1947 30.4218 18.1947 30.0339C18.1947 29.646 17.8783 29.3308 17.4916 29.3308H15.9553C16.0561 27.1604 16.6303 25.112 17.5771 23.2839L18.9072 24.0515C19.0174 24.1147 19.1369 24.1452 19.2564 24.1452C19.5002 24.1452 19.7346 24.0187 19.8646 23.7937C20.0604 23.4573 19.9455 23.0272 19.6057 22.8327L18.2803 22.0675C19.424 20.2968 20.9369 18.7839 22.7076 17.6425L23.4729 18.969C23.6018 19.1952 23.8408 19.3206 24.0811 19.3206C24.2006 19.3206 24.3248 19.2901 24.435 19.2269C24.7701 19.0323 24.885 18.6022 24.6881 18.2659L23.9229 16.9382C25.751 15.9925 27.7994 15.4183 29.9721 15.3163V16.8515C29.9721 17.2405 30.2826 17.5546 30.6705 17.5546C31.0631 17.5546 31.3736 17.2394 31.3736 16.8515V15.3163C33.5463 15.4183 35.5947 15.9925 37.4229 16.9382L36.6576 18.2659C36.4619 18.6022 36.5768 19.0323 36.9107 19.2269C37.0209 19.2913 37.1451 19.3206 37.2647 19.3206C37.5037 19.3206 37.7428 19.1952 37.8729 18.969L38.6381 17.6425C40.41 18.7839 41.9217 20.2968 43.0654 22.0675ZM35.2033 26.844L32.4518 33.744C32.3463 34.0194 32.0779 34.187 31.8014 34.187C31.7146 34.187 31.6291 34.1706 31.5424 34.1366C31.1791 33.9925 31.0068 33.5835 31.1498 33.2226L33.8967 26.3226C34.0408 25.9628 34.4521 25.7858 34.8107 25.93C35.174 26.0741 35.3463 26.4831 35.2033 26.844ZM24.0717 26.6308C24.5791 27.1335 24.8615 27.8062 24.8615 28.5233C24.8615 29.4831 24.1725 30.3327 23.5643 31.0815C23.426 31.2503 23.2959 31.4108 23.1811 31.5655C23.167 31.5808 23.1576 31.596 23.1424 31.6101L22.09 32.7854H24.6939C25.0865 32.7854 25.3971 33.1007 25.3971 33.4886C25.3971 33.8765 25.0865 34.1917 24.6939 34.1917H20.5162C20.2385 34.1917 19.99 34.0288 19.8752 33.7757C19.7604 33.5226 19.8084 33.2261 19.9947 33.0198L22.076 30.6925C22.2049 30.5261 22.3396 30.3585 22.4732 30.1956C22.9326 29.6284 23.4541 28.9839 23.4541 28.5233C23.4541 28.1835 23.3205 27.8671 23.0803 27.6304C22.8506 27.4007 22.5447 27.2753 22.2189 27.2812C21.7689 27.2858 21.3482 27.5319 21.1232 27.921C20.9322 28.2573 20.501 28.3733 20.1611 28.18C19.826 27.9866 19.7111 27.5565 19.9021 27.2202C20.3756 26.4011 21.2568 25.8855 22.2037 25.8749C22.908 25.869 23.5736 26.1362 24.0717 26.6308ZM29.0146 28.4659C29.4025 28.4659 29.7178 28.7812 29.7178 29.169V30.8097H29.8947C30.2826 30.8097 30.5979 31.1237 30.5979 31.5128C30.5979 31.9007 30.2814 32.2159 29.8947 32.2159H29.7178V33.4874C29.7178 33.8753 29.4014 34.1905 29.0146 34.1905C28.6268 34.1905 28.3115 33.8753 28.3115 33.4874V32.2159H25.5213C25.2682 32.2159 25.0326 32.08 24.9084 31.8608C24.7842 31.6417 24.7842 31.3722 24.9131 31.1554L27.8229 26.2206C28.0244 25.8866 28.4545 25.7753 28.7896 25.9722C29.1248 26.169 29.235 26.6015 29.0381 26.9355L26.7506 30.8108H28.3104V29.1702C28.3115 28.7812 28.6279 28.4659 29.0146 28.4659ZM35.9932 26.578C35.9932 26.189 36.3096 25.8749 36.6963 25.8749H40.8166C40.874 25.8737 40.9314 25.8796 40.9842 25.8925C41.065 25.9112 41.1424 25.944 41.2139 25.9886C41.2994 26.0448 41.3721 26.1175 41.4248 26.2019C41.4775 26.2851 41.5162 26.3812 41.5303 26.4843C41.5397 26.5651 41.535 26.6495 41.5162 26.7327C41.5068 26.789 41.4869 26.8417 41.4635 26.8921L38.2279 33.7886C38.1084 34.044 37.8541 34.1929 37.5916 34.1929C37.4908 34.1929 37.39 34.1718 37.2951 34.1261C36.9459 33.962 36.7924 33.5425 36.9553 33.1909L39.7268 27.2823H36.6975C36.3084 27.2812 35.9932 26.9671 35.9932 26.578ZM48.5451 30.0339C48.5451 39.8905 40.5295 47.9085 30.6705 47.9085C20.8162 47.9085 12.8006 39.8905 12.8006 30.0339C12.8006 20.1772 20.8162 12.1593 30.6705 12.1593C40.5295 12.1581 48.5451 20.1772 48.5451 30.0339ZM30.6705 13.8925C39.5721 13.8925 46.8131 21.1335 46.8131 30.0339C46.8131 38.9343 39.5721 46.1753 30.6705 46.1753C21.7736 46.1753 14.5326 38.9343 14.5326 30.0339C14.5326 21.1335 21.7736 13.8925 30.6705 13.8925ZM52.6373 13.4026C52.9537 13.1765 53.3885 13.2479 53.6182 13.5632C57.0834 18.3831 58.9162 24.0784 58.9162 30.0339C58.9162 37.5773 55.9772 44.6706 50.6416 50.0038C45.3107 55.3382 38.2174 58.2761 30.6705 58.2761C25.301 58.2761 20.1365 56.7843 15.6436 53.9483L16.2518 56.9706C16.3279 57.3503 16.0842 57.7218 15.701 57.7991C15.6529 57.8085 15.6096 57.8132 15.5627 57.8132C15.2369 57.8132 14.9404 57.5823 14.8736 57.2483L13.9256 52.5468C13.8869 52.364 13.9256 52.1741 14.0264 52.0194C14.1318 51.8636 14.29 51.7558 14.4764 51.7183L19.1756 50.769C19.5588 50.6917 19.9268 50.9378 20.0041 51.3187C20.0803 51.6995 19.8365 52.0698 19.4533 52.1472L16.4006 52.7636C20.6744 55.4554 25.5752 56.8698 30.6717 56.8698C45.4689 56.8698 57.51 44.8312 57.51 30.0339C57.51 24.3749 55.7674 18.9632 52.4756 14.3847C52.2494 14.0683 52.3221 13.6288 52.6373 13.4026Z" fill="#00665A"/>
</svg>
