<svg width="16" height="16" viewBox="0 0 16 16" fill="none" xmlns="http://www.w3.org/2000/svg">
<g clip-path="url(#clip0_1172_10950)">
<path d="M2 0.333496H14M2 15.6668H14M3.66667 15.6668V11.6668L5.57067 10.5242C6.00656 10.2627 6.3673 9.89275 6.61776 9.45043C6.86822 9.00811 6.99986 8.50847 6.99986 8.00016C6.99986 7.49185 6.86822 6.99221 6.61776 6.54989C6.3673 6.10757 6.00656 5.73765 5.57067 5.47616L3.66667 4.3335V0.333496M12.3333 0.333496V4.3335L10.4293 5.47616C9.99361 5.73778 9.63303 6.10774 9.38269 6.55005C9.13235 6.99235 9.00077 7.49193 9.00077 8.00016C9.00077 8.5084 9.13235 9.00798 9.38269 9.45028C9.63303 9.89258 9.99361 10.2625 10.4293 10.5242L12.3333 11.6668V15.6668" stroke="black"/>
</g>
<defs>
<clipPath id="clip0_1172_10950">
<rect width="16" height="16" fill="white"/>
</clipPath>
</defs>
</svg>
