<svg width="24" height="24" viewBox="0 0 24 24" fill="none" xmlns="http://www.w3.org/2000/svg">
<path d="M14 4.5C14 5.16304 13.7366 5.79893 13.2678 6.26777C12.7989 6.73661 12.163 7 11.5 7C10.837 7 10.2011 6.73661 9.73223 6.26777C9.26339 5.79893 9 5.16304 9 4.5C9 3.83696 9.26339 3.20107 9.73223 2.73223C10.2011 2.26339 10.837 2 11.5 2C12.163 2 12.7989 2.26339 13.2678 2.73223C13.7366 3.20107 14 3.83696 14 4.5Z" fill="black"/>
<path fill-rule="evenodd" clip-rule="evenodd" d="M12.5282 10.753C12.4422 10.7492 12.3562 10.7482 12.2702 10.75H11.1792L11.0882 11.662C10.9142 13.402 10.8532 14.102 11.0082 14.763C11.1642 15.425 11.5302 16.024 12.4612 17.505L15.0362 21.601C15.1393 21.7694 15.1719 21.9716 15.1268 22.1638C15.0818 22.356 14.9628 22.5227 14.7956 22.6278C14.6285 22.7328 14.4266 22.7677 14.2339 22.7249C14.0412 22.682 13.8731 22.5649 13.7662 22.399L11.1912 18.303L11.1182 18.187C10.2832 16.86 9.76818 16.041 9.54818 15.107C9.32818 14.173 9.42518 13.209 9.58218 11.648L9.59518 11.512L9.67118 10.751C9.17118 10.754 8.79918 10.763 8.50118 10.8C8.12318 10.845 7.94718 10.925 7.82218 11.025C7.69818 11.125 7.58218 11.279 7.45518 11.638C7.32218 12.015 7.20718 12.526 7.03618 13.295L6.73218 14.663C6.68668 14.8548 6.56751 15.021 6.40044 15.1256C6.23336 15.2302 6.03182 15.2648 5.83941 15.222C5.647 15.1791 5.4792 15.0623 5.3723 14.8966C5.2654 14.731 5.22799 14.53 5.26818 14.337L5.58218 12.926C5.74018 12.212 5.87418 11.612 6.04118 11.138C6.21818 10.636 6.46018 10.195 6.88418 9.855C7.30818 9.515 7.79018 9.375 8.31918 9.31C8.81818 9.25 9.43318 9.25 10.1642 9.25H12.2952C12.4312 9.25 12.5362 9.25 12.6352 9.257C13.1799 9.296 13.7006 9.49629 14.1311 9.83235C14.5615 10.1684 14.8822 10.625 15.0522 11.144C15.0822 11.238 15.1082 11.341 15.1422 11.473L15.1472 11.497C15.2032 11.721 15.2202 11.785 15.2362 11.829C15.4462 12.435 16.0812 12.784 16.7052 12.636C16.7512 12.626 16.8142 12.605 17.0332 12.532L17.7632 12.289C17.9494 12.2347 18.1494 12.2546 18.3213 12.3447C18.4931 12.4347 18.6233 12.5878 18.6847 12.7718C18.746 12.9559 18.7337 13.1565 18.6502 13.3316C18.5668 13.5067 18.4187 13.6427 18.2372 13.711L17.5072 13.955L17.4752 13.965C17.3358 14.0146 17.1944 14.058 17.0512 14.095C16.3884 14.2521 15.691 14.1576 15.0939 13.8298C14.4968 13.5021 14.0426 12.9644 13.8192 12.321C13.7732 12.1805 13.7335 12.038 13.7002 11.894L13.6922 11.86C13.6729 11.776 13.6509 11.6926 13.6262 11.61C13.5488 11.3743 13.4031 11.167 13.2076 11.0144C13.0121 10.8618 12.7756 10.7708 12.5282 10.753ZM9.41618 16.876C9.58167 16.9863 9.69655 17.1579 9.73555 17.3529C9.77456 17.548 9.7345 17.7505 9.62418 17.916L6.62418 22.416C6.57007 22.4991 6.50001 22.5707 6.41806 22.6266C6.33611 22.6824 6.24388 22.7215 6.14673 22.7415C6.04958 22.7615 5.94943 22.762 5.85208 22.743C5.75473 22.724 5.66211 22.6859 5.57958 22.6309C5.49705 22.5759 5.42626 22.505 5.37129 22.4225C5.31633 22.3399 5.27829 22.2473 5.25937 22.1499C5.24046 22.0525 5.24104 21.9524 5.26109 21.8553C5.28114 21.7581 5.32026 21.6659 5.37618 21.584L8.37618 17.084C8.48652 16.9185 8.65807 16.8036 8.8531 16.7646C9.04814 16.7256 9.25068 16.7657 9.41618 16.876Z" fill="black"/>
</svg>
